<?xml version="1.0" encoding="utf-8"?>
<!-- Generator: Adobe Illustrator 19.2.1, SVG Export Plug-In . SVG Version: 6.00 Build 0)  -->
<svg version="1.1" id="Layer_1" xmlns="http://www.w3.org/2000/svg" xmlns:xlink="http://www.w3.org/1999/xlink" x="0px" y="0px"
	 viewBox="0 0 1024 180" style="enable-background:new 0 0 1024 180;" xml:space="preserve">
<style type="text/css">
	.st0{fill:#E8DE5E;}
	.st1{fill:#DCD24B;}
	.st2{fill:#E8DD4F;}
	.st3{fill:#674D41;}
	.st4{fill:#70564C;}
	.st5{fill:#89695D;}
	.st6{fill:#936914;}
	.st7{fill:#815D10;}
	.st8{fill:#39BFEF;}
	.st9{fill:#2AA6DF;}
</style>
<g>
	<path id="XMLID_31_" class="st0" d="M584.9,137.4c-45.3-40.5-95.2-65.8-215.2-64c-130.4,1.9-198.9,58.3-203.5,62.4L584.9,137.4z"/>
	<path class="st1" d="M355.3,136.5l229.6,0.9c-35-31.3-72.8-53.5-143.7-61.2C396.5,88.5,364,110.5,355.3,136.5z"/>
</g>
<g>
	<path id="XMLID_29_" class="st2" d="M765.7,131.4C716.6,96.9,627.6,76,532.6,76.8c-141.2,1.1-215.4,49.7-220.4,53.2L765.7,131.4z"
		/>
	<path class="st1" d="M509.7,131l260,0.8c-40.3-28.3-107.5-47.4-182.7-53C550.9,91,523.3,109.4,509.7,131z"/>
</g>
<g>
	<g id="XMLID_47_">
		<polygon id="XMLID_50_" class="st3" points="272.9,156.5 302.6,94 323.1,82.7 353.1,85.9 357.8,160.8 		"/>
		<polygon id="XMLID_49_" class="st4" points="357.8,160.8 272.9,156.5 310.4,120.7 327.7,94 353.1,85.9 		"/>
		<polygon id="XMLID_48_" class="st5" points="272.9,156.5 302.6,94 327.7,94 300.3,156.7 		"/>
	</g>
	<g>
		<g id="XMLID_46_">
			<polygon id="XMLID_43_" class="st3" points="324.1,122.3 356.6,82.4 392.5,87.2 396.5,124.5 			"/>
			<polygon id="XMLID_45_" class="st4" points="396.5,124.5 324.1,122.3 356.1,104.5 371.4,95.4 393.4,96.3 			"/>
			<polygon id="XMLID_44_" class="st5" points="324.1,122.3 356.6,82.4 371.4,95.4 347.4,122.4 			"/>
		</g>
		<g id="XMLID_51_">
			<polygon id="XMLID_54_" class="st3" points="320.1,136.2 332.3,99.2 352.8,92.6 373.4,98.1 387.6,138.2 			"/>
			<polygon id="XMLID_53_" class="st4" points="387.6,138.2 302.7,135.7 340.2,114.8 357.8,103.5 373.4,98.1 			"/>
			<polygon id="XMLID_52_" class="st5" points="315.4,137.2 332.3,99.2 357.8,103.5 361.2,137.2 			"/>
		</g>
		<g id="XMLID_74_">
			<polygon id="XMLID_77_" class="st3" points="427.2,170.9 439.4,112.7 459.9,102.3 480.5,110.8 494.7,174.1 			"/>
			<polygon id="XMLID_76_" class="st4" points="500.3,156.6 409.8,170 447.3,137.2 464.9,119.3 480.5,110.8 			"/>
			<polygon id="XMLID_75_" class="st5" points="422.5,172.3 439.4,112.7 464.9,119.3 468.2,172.3 			"/>
		</g>
		<g id="XMLID_62_">
			<polygon id="XMLID_65_" class="st3" points="371,142.1 383.2,105.1 403.7,98.5 424.3,104 438.4,144.1 			"/>
			<polygon id="XMLID_64_" class="st4" points="438.4,144.1 353.6,141.6 391.1,120.7 408.7,109.4 424.3,104 			"/>
			<polygon id="XMLID_63_" class="st5" points="366.2,143.1 383.2,105.1 408.7,109.4 412,143.1 			"/>
		</g>
		<g id="XMLID_55_">
			<polygon id="XMLID_58_" class="st3" points="269.2,161.9 308.1,107.1 323.2,101.4 335.5,103.9 339,148.7 			"/>
			<polygon id="XMLID_57_" class="st4" points="339,148.7 269.2,161.9 306.7,130.5 323.9,107.1 335.5,103.9 			"/>
			<polygon id="XMLID_56_" class="st5" points="269.2,161.9 308.1,107.1 323.9,107.1 296.6,162 			"/>
		</g>
		<g id="XMLID_70_">
			<polygon id="XMLID_73_" class="st3" points="389.9,162.9 422.4,93.7 458.3,102 462.3,166.5 			"/>
			<polygon id="XMLID_72_" class="st4" points="462.3,166.5 389.9,162.9 421.9,131.8 437.2,116.2 459.2,117.8 			"/>
			<polygon id="XMLID_71_" class="st5" points="389.9,162.9 422.4,93.7 437.2,116.2 413.2,163 			"/>
		</g>
		<g id="XMLID_66_">
			<polygon id="XMLID_69_" class="st3" points="322.9,162.9 352.5,126.4 373,119.8 403,121.8 407.8,165.4 			"/>
			<polygon id="XMLID_68_" class="st4" points="407.8,165.4 322.9,162.9 360.4,142 377.6,126.4 403,121.8 			"/>
			<polygon id="XMLID_67_" class="st5" points="322.9,162.9 352.5,126.4 377.6,126.4 350.2,163 			"/>
		</g>
	</g>
</g>
<g>
	<g>
		<rect x="649.5" y="76.8" class="st6" width="15" height="60.5"/>
		<rect x="658.2" y="76.8" class="st7" width="6.4" height="60.5"/>
	</g>
	<g>
		<rect x="673.8" y="79.3" class="st6" width="15" height="60.5"/>
		<rect x="682.4" y="79.3" class="st7" width="6.4" height="60.5"/>
	</g>
	<g>
		<rect x="697" y="82.3" class="st6" width="15" height="60.5"/>
		<rect x="705.6" y="82.3" class="st7" width="6.4" height="60.5"/>
	</g>
	<g>
		<rect x="719.2" y="84.5" class="st6" width="15" height="60.5"/>
		<rect x="727.8" y="84.5" class="st7" width="6.4" height="60.5"/>
	</g>
	<g>
		<rect x="742.2" y="86.1" class="st6" width="15" height="60.5"/>
		<rect x="750.8" y="86.1" class="st7" width="6.4" height="60.5"/>
	</g>
	<g>
		<rect x="765.7" y="89.6" class="st6" width="15" height="60.5"/>
		<rect x="774.3" y="89.6" class="st7" width="6.4" height="60.5"/>
	</g>
	<g>
		<rect x="789.6" y="91.8" class="st6" width="15" height="60.5"/>
		<rect x="798.2" y="91.8" class="st7" width="6.4" height="60.5"/>
	</g>
	<g>
		<rect x="813.9" y="93.6" class="st6" width="15" height="60.5"/>
		<rect x="822.5" y="93.6" class="st7" width="6.4" height="60.5"/>
	</g>
	<g>
		<rect x="837" y="95.2" class="st6" width="15" height="60.5"/>
		<rect x="845.6" y="95.2" class="st7" width="6.4" height="60.5"/>
	</g>
	<g>
		<rect x="862.1" y="99.2" class="st6" width="15" height="60.5"/>
		<rect x="870.7" y="99.2" class="st7" width="6.4" height="60.5"/>
	</g>
</g>
<g id="XMLID_30_">
	<polygon id="XMLID_61_" class="st3" points="403.2,156.1 442.1,119.7 457.2,115.9 469.5,117.6 473,147.4 	"/>
	<polygon id="XMLID_60_" class="st4" points="473,147.4 403.2,156.1 440.7,135.2 457.9,119.7 469.5,117.6 	"/>
	<polygon id="XMLID_59_" class="st5" points="403.2,156.1 442.1,119.7 457.9,119.7 430.6,156.3 	"/>
</g>
<rect y="120.8" class="st8" width="1024" height="58.1"/>
<path class="st8" d="M42.7,121.6c-10,0.1-21.3-12.5-21.3-12.5S10,121.6,0,121.6h21.3H42.7z M85.4,121.6c-10,0.1-21.3-12.5-21.3-12.5
	s-11.3,12.5-21.3,12.5h21.3H85.4z M149.3,121.6h21.3c-10.1,0.1-21.3-12.5-21.3-12.5s-11.2,12.4-21.2,12.5h0.2H149.3z M128,121.6
	L128,121.6c-9.9-0.1-21.1-12.5-21.1-12.5s-11.3,12.5-21.4,12.5h21.3H128z M213.3,121.6c-10,0.1-21.3-12.5-21.3-12.5
	s-11.3,12.5-21.3,12.5H192H213.3z M256.1,121.6c-10,0.1-21.3-12.5-21.3-12.5s-11.3,12.5-21.4,12.5h21.3H256.1z M320,121.6h21.3
	c-10.1,0.1-21.3-12.5-21.3-12.5s-11.2,12.4-21.2,12.5h0.2H320z M298.7,121.6L298.7,121.6c-9.9-0.1-21.1-12.5-21.1-12.5
	s-11.4,12.5-21.4,12.5h21.3H298.7z M384,121.6c-10,0.1-21.3-12.5-21.3-12.5s-11.3,12.5-21.4,12.5h21.3H384z M426.8,121.6
	c-10,0.1-21.3-12.5-21.3-12.5s-11.4,12.5-21.4,12.5h21.3H426.8z M490.7,121.6H512c-10.1,0.1-21.3-12.5-21.3-12.5
	s-11.2,12.4-21.2,12.5h0.2H490.7z M469.3,121.6L469.3,121.6c-9.9-0.1-21.1-12.5-21.1-12.5s-11.3,12.5-21.3,12.5h21.3H469.3z
	 M554.7,121.6c-10,0.1-21.3-12.5-21.3-12.5S522,121.6,512,121.6h21.3H554.7z M597.4,121.6c-10,0.1-21.3-12.5-21.3-12.5
	s-11.3,12.5-21.3,12.5h21.3H597.4z M661.3,121.6h21.3c-10.1,0.1-21.3-12.5-21.3-12.5s-11.2,12.4-21.2,12.5h0.2H661.3z M640,121.6
	L640,121.6c-9.9-0.1-21.1-12.5-21.1-12.5s-11.3,12.5-21.3,12.5h21.3H640z M725.3,121.6c-10,0.1-21.3-12.5-21.3-12.5
	s-11.3,12.5-21.3,12.5H704H725.3z M768.1,121.6c-10,0.1-21.3-12.5-21.3-12.5s-11.3,12.5-21.3,12.5h21.3H768.1z M832,121.6h21.3
	c-10.1,0.1-21.3-12.5-21.3-12.5s-11.2,12.4-21.2,12.5h0.2H832z M810.7,121.6L810.7,121.6c-9.9-0.1-21.1-12.5-21.1-12.5
	s-11.3,12.5-21.3,12.5h21.3H810.7z M896,121.6c-10,0.1-21.3-12.5-21.3-12.5s-11.3,12.5-21.3,12.5h21.3H896z M938.8,121.6
	c-10,0.1-21.3-12.5-21.3-12.5s-11.3,12.5-21.3,12.5h21.3H938.8z M1002.7,121.6h21.3c-10.1,0.1-21.3-12.5-21.3-12.5
	s-11.2,12.4-21.2,12.5h0.2H1002.7z M981.3,121.6L981.3,121.6c-9.9-0.1-21.1-12.5-21.1-12.5s-11.3,12.5-21.3,12.5h21.3H981.3z"/>
<rect id="XMLID_32_" y="142.8" class="st9" width="1024" height="37"/>
</svg>
