<?xml version="1.0" encoding="utf-8"?>
<!-- Generator: Adobe Illustrator 19.2.1, SVG Export Plug-In . SVG Version: 6.00 Build 0)  -->
<svg version="1.1" id="Layer_1" xmlns="http://www.w3.org/2000/svg" xmlns:xlink="http://www.w3.org/1999/xlink" x="0px" y="0px"
	 viewBox="0 0 1024 419.9" style="enable-background:new 0 0 1024 419.9;" xml:space="preserve">
<style type="text/css">
	.st0{fill:#E8DE5E;}
	.st1{fill:#DCD24B;}
	.st2{fill:#ECA224;}
	.st3{fill:#E8CB00;}
	.st4{fill:#E8DD4F;}
	.st5{fill:#674D41;}
	.st6{fill:#70564C;}
	.st7{fill:#89695D;}
	.st8{fill:#936914;}
	.st9{fill:#815D10;}
	.st10{fill:#39BFEF;}
	.st11{fill:#2AA6DF;}
	.st12{fill:#FAFAFA;}
</style>
<g>
	<path id="XMLID_31_" class="st0" d="M584.9,377.5c-45.3-40.5-95.2-65.8-215.2-64c-130.4,1.9-198.9,58.3-203.5,62.4L584.9,377.5z"/>
	<path class="st1" d="M355.3,376.6l229.6,0.9c-35-31.3-72.8-53.5-143.7-61.2C396.5,328.6,364,350.6,355.3,376.6z"/>
</g>
<g id="XMLID_40_">
	<path id="XMLID_39_" class="st2" d="M387.9,125.3L387.9,125.3c-27.2,0-49.2-22-49.2-49.2l0,0c0-27.2,22-49.2,49.2-49.2l0,0
		c27.2,0,49.2,22,49.2,49.2l0,0C437.1,103.3,415.1,125.3,387.9,125.3z"/>
	<path id="XMLID_38_" class="st3" d="M387.9,111.5L387.9,111.5c-19.6,0-35.4-15.9-35.4-35.4l0,0c0-19.6,15.9-35.4,35.4-35.4l0,0
		c19.6,0,35.4,15.9,35.4,35.4l0,0C423.4,95.7,407.5,111.5,387.9,111.5z"/>
</g>
<g>
	<path id="XMLID_29_" class="st4" d="M765.7,371.5c-49.1-34.5-138.1-55.4-233.1-54.6c-141.2,1.1-215.4,49.7-220.4,53.2L765.7,371.5z
		"/>
	<path class="st1" d="M509.7,371.1l260,0.8c-40.3-28.3-107.5-47.4-182.7-53C550.9,331.1,523.3,349.5,509.7,371.1z"/>
</g>
<g>
	<g id="XMLID_47_">
		<polygon id="XMLID_50_" class="st5" points="272.9,396.6 302.6,334.1 323.1,322.8 353.1,326 357.8,400.9 		"/>
		<polygon id="XMLID_49_" class="st6" points="357.8,400.9 272.9,396.6 310.4,360.8 327.7,334.1 353.1,326 		"/>
		<polygon id="XMLID_48_" class="st7" points="272.9,396.6 302.6,334.1 327.7,334.1 300.3,396.8 		"/>
	</g>
	<g>
		<g id="XMLID_46_">
			<polygon id="XMLID_43_" class="st5" points="324.1,362.4 356.6,322.5 392.5,327.3 396.5,364.6 			"/>
			<polygon id="XMLID_45_" class="st6" points="396.5,364.6 324.1,362.4 356.1,344.6 371.4,335.5 393.4,336.4 			"/>
			<polygon id="XMLID_44_" class="st7" points="324.1,362.4 356.6,322.5 371.4,335.5 347.4,362.5 			"/>
		</g>
		<g id="XMLID_51_">
			<polygon id="XMLID_54_" class="st5" points="320.1,376.3 332.3,339.3 352.8,332.7 373.4,338.2 387.6,378.3 			"/>
			<polygon id="XMLID_53_" class="st6" points="387.6,378.3 302.7,375.8 340.2,354.9 357.8,343.6 373.4,338.2 			"/>
			<polygon id="XMLID_52_" class="st7" points="315.4,377.3 332.3,339.3 357.8,343.6 361.2,377.3 			"/>
		</g>
		<g id="XMLID_74_">
			<polygon id="XMLID_77_" class="st5" points="427.2,411 439.4,352.8 459.9,342.4 480.5,350.9 494.7,414.2 			"/>
			<polygon id="XMLID_76_" class="st6" points="500.3,396.7 409.8,410.1 447.3,377.3 464.9,359.4 480.5,350.9 			"/>
			<polygon id="XMLID_75_" class="st7" points="422.5,412.4 439.4,352.8 464.9,359.4 468.2,412.4 			"/>
		</g>
		<g id="XMLID_62_">
			<polygon id="XMLID_65_" class="st5" points="371,382.2 383.2,345.2 403.7,338.6 424.3,344.1 438.4,384.2 			"/>
			<polygon id="XMLID_64_" class="st6" points="438.4,384.2 353.6,381.7 391.1,360.8 408.7,349.5 424.3,344.1 			"/>
			<polygon id="XMLID_63_" class="st7" points="366.2,383.2 383.2,345.2 408.7,349.5 412,383.2 			"/>
		</g>
		<g id="XMLID_55_">
			<polygon id="XMLID_58_" class="st5" points="269.2,402 308.1,347.2 323.2,341.5 335.5,344 339,388.8 			"/>
			<polygon id="XMLID_57_" class="st6" points="339,388.8 269.2,402 306.7,370.6 323.9,347.2 335.5,344 			"/>
			<polygon id="XMLID_56_" class="st7" points="269.2,402 308.1,347.2 323.9,347.2 296.6,402.1 			"/>
		</g>
		<g id="XMLID_70_">
			<polygon id="XMLID_73_" class="st5" points="389.9,403 422.4,333.8 458.3,342.1 462.3,406.6 			"/>
			<polygon id="XMLID_72_" class="st6" points="462.3,406.6 389.9,403 421.9,371.9 437.2,356.3 459.2,357.9 			"/>
			<polygon id="XMLID_71_" class="st7" points="389.9,403 422.4,333.8 437.2,356.3 413.2,403.1 			"/>
		</g>
		<g id="XMLID_66_">
			<polygon id="XMLID_69_" class="st5" points="322.9,403 352.5,366.5 373,359.9 403,361.9 407.8,405.5 			"/>
			<polygon id="XMLID_68_" class="st6" points="407.8,405.5 322.9,403 360.4,382.1 377.6,366.5 403,361.9 			"/>
			<polygon id="XMLID_67_" class="st7" points="322.9,403 352.5,366.5 377.6,366.5 350.2,403.1 			"/>
		</g>
	</g>
</g>
<g>
	<g>
		<rect x="649.5" y="316.9" class="st8" width="15" height="60.5"/>
		<rect x="658.2" y="316.9" class="st9" width="6.4" height="60.5"/>
	</g>
	<g>
		<rect x="673.8" y="319.4" class="st8" width="15" height="60.5"/>
		<rect x="682.4" y="319.4" class="st9" width="6.4" height="60.5"/>
	</g>
	<g>
		<rect x="697" y="322.4" class="st8" width="15" height="60.5"/>
		<rect x="705.6" y="322.4" class="st9" width="6.4" height="60.5"/>
	</g>
	<g>
		<rect x="719.2" y="324.6" class="st8" width="15" height="60.5"/>
		<rect x="727.8" y="324.6" class="st9" width="6.4" height="60.5"/>
	</g>
	<g>
		<rect x="742.2" y="326.2" class="st8" width="15" height="60.5"/>
		<rect x="750.8" y="326.2" class="st9" width="6.4" height="60.5"/>
	</g>
	<g>
		<rect x="765.7" y="329.7" class="st8" width="15" height="60.5"/>
		<rect x="774.3" y="329.7" class="st9" width="6.4" height="60.5"/>
	</g>
	<g>
		<rect x="789.6" y="331.9" class="st8" width="15" height="60.5"/>
		<rect x="798.2" y="331.9" class="st9" width="6.4" height="60.5"/>
	</g>
	<g>
		<rect x="813.9" y="333.7" class="st8" width="15" height="60.5"/>
		<rect x="822.5" y="333.7" class="st9" width="6.4" height="60.5"/>
	</g>
	<g>
		<rect x="837" y="335.3" class="st8" width="15" height="60.5"/>
		<rect x="845.6" y="335.3" class="st9" width="6.4" height="60.5"/>
	</g>
	<g>
		<rect x="862.1" y="339.3" class="st8" width="15" height="60.5"/>
		<rect x="870.7" y="339.3" class="st9" width="6.4" height="60.5"/>
	</g>
</g>
<g id="XMLID_30_">
	<polygon id="XMLID_61_" class="st5" points="403.2,396.2 442.1,359.8 457.2,356 469.5,357.7 473,387.5 	"/>
	<polygon id="XMLID_60_" class="st6" points="473,387.5 403.2,396.2 440.7,375.3 457.9,359.8 469.5,357.7 	"/>
	<polygon id="XMLID_59_" class="st7" points="403.2,396.2 442.1,359.8 457.9,359.8 430.6,396.4 	"/>
</g>
<rect y="360.9" class="st10" width="1024" height="58.1"/>
<path class="st10" d="M42.7,361.7c-10,0.1-21.3-12.5-21.3-12.5S10,361.7,0,361.7h21.3H42.7z M85.4,361.7
	c-10,0.1-21.3-12.5-21.3-12.5s-11.3,12.5-21.3,12.5h21.3H85.4z M149.3,361.7h21.3c-10.1,0.1-21.3-12.5-21.3-12.5
	s-11.2,12.4-21.2,12.5h0.2H149.3z M128,361.7L128,361.7c-9.9-0.1-21.1-12.5-21.1-12.5s-11.3,12.5-21.4,12.5h21.3H128z M213.3,361.7
	c-10,0.1-21.3-12.5-21.3-12.5s-11.3,12.5-21.3,12.5H192H213.3z M256.1,361.7c-10,0.1-21.3-12.5-21.3-12.5s-11.3,12.5-21.4,12.5h21.3
	H256.1z M320,361.7h21.3c-10.1,0.1-21.3-12.5-21.3-12.5s-11.2,12.4-21.2,12.5h0.2H320z M298.7,361.7L298.7,361.7
	c-9.9-0.1-21.1-12.5-21.1-12.5s-11.4,12.5-21.4,12.5h21.3H298.7z M384,361.7c-10,0.1-21.3-12.5-21.3-12.5s-11.3,12.5-21.4,12.5h21.3
	H384z M426.8,361.7c-10,0.1-21.3-12.5-21.3-12.5s-11.4,12.5-21.4,12.5h21.3H426.8z M490.7,361.7H512c-10.1,0.1-21.3-12.5-21.3-12.5
	s-11.2,12.4-21.2,12.5h0.2H490.7z M469.3,361.7L469.3,361.7c-9.9-0.1-21.1-12.5-21.1-12.5s-11.3,12.5-21.3,12.5h21.3H469.3z
	 M554.7,361.7c-10,0.1-21.3-12.5-21.3-12.5S522,361.7,512,361.7h21.3H554.7z M597.4,361.7c-10,0.1-21.3-12.5-21.3-12.5
	s-11.3,12.5-21.3,12.5h21.3H597.4z M661.3,361.7h21.3c-10.1,0.1-21.3-12.5-21.3-12.5s-11.2,12.4-21.2,12.5h0.2H661.3z M640,361.7
	L640,361.7c-9.9-0.1-21.1-12.5-21.1-12.5s-11.3,12.5-21.3,12.5h21.3H640z M725.3,361.7c-10,0.1-21.3-12.5-21.3-12.5
	s-11.3,12.5-21.3,12.5H704H725.3z M768.1,361.7c-10,0.1-21.3-12.5-21.3-12.5s-11.3,12.5-21.3,12.5h21.3H768.1z M832,361.7h21.3
	c-10.1,0.1-21.3-12.5-21.3-12.5s-11.2,12.4-21.2,12.5h0.2H832z M810.7,361.7L810.7,361.7c-9.9-0.1-21.1-12.5-21.1-12.5
	s-11.3,12.5-21.3,12.5h21.3H810.7z M896,361.7c-10,0.1-21.3-12.5-21.3-12.5s-11.3,12.5-21.3,12.5h21.3H896z M938.8,361.7
	c-10,0.1-21.3-12.5-21.3-12.5s-11.3,12.5-21.3,12.5h21.3H938.8z M1002.7,361.7h21.3c-10.1,0.1-21.3-12.5-21.3-12.5
	s-11.2,12.4-21.2,12.5h0.2H1002.7z M981.3,361.7L981.3,361.7c-9.9-0.1-21.1-12.5-21.1-12.5s-11.3,12.5-21.3,12.5h21.3H981.3z"/>
<rect id="XMLID_32_" y="382.9" class="st11" width="1024" height="37"/>
<g id="XMLID_109_">
	<g id="XMLID_137_">
		<g id="XMLID_138_">
			<path id="XMLID_139_" class="st12" d="M385.1,0H196.3c-13.6,0-24.6,11-24.6,24.6v18.7c0,13.6-11,24.6-24.6,24.6h-25.4
				c-13.6,0-24.6,11-24.6,24.6l0,0c0,13.6,11,24.6,24.6,24.6h177.2c13.6,0,24.6-11,24.6-24.6l0,0c0-13.6,11-24.6,24.6-24.6h37
				c13.6,0,24.6-11,24.6-24.6V24.6C409.7,11,398.6,0,385.1,0z"/>
		</g>
	</g>
</g>
<g id="XMLID_33_">
	<path id="XMLID_34_" class="st12" d="M891.9,59.8V45.4c0-5.5-4.4-9.9-9.9-9.9H730.2c-5.5,0-9.9,4.4-9.9,9.9v32.3
		c0,5.5,4.4,9.9,9.9,9.9h45.9c5.5,0,9.9,4.4,9.9,9.9l0,0c0,5.5,4.4,9.9,9.9,9.9h116.8c5.5,0,9.9-4.4,9.9-9.9V79.6
		c0-5.5-4.4-9.9-9.9-9.9h-11C896.3,69.8,891.9,65.3,891.9,59.8z"/>
	<path id="XMLID_42_" class="st12" d="M689.4,136h15.2c10.4,0,18.9-8.4,18.9-18.9l0,0c0-10.4-8.4-18.9-18.9-18.9h-15.2
		c-10.4,0-18.9,8.4-18.9,18.9l0,0C670.6,127.5,679,136,689.4,136z"/>
</g>
</svg>
