<?xml version="1.0" encoding="UTF-8" standalone="no"?>
<!-- Created with Inkscape (http://www.inkscape.org/) -->

<svg
   xmlns:dc="http://purl.org/dc/elements/1.1/"
   xmlns:cc="http://creativecommons.org/ns#"
   xmlns:rdf="http://www.w3.org/1999/02/22-rdf-syntax-ns#"
   xmlns:svg="http://www.w3.org/2000/svg"
   xmlns="http://www.w3.org/2000/svg"
   xmlns:xlink="http://www.w3.org/1999/xlink"
   xmlns:sodipodi="http://sodipodi.sourceforge.net/DTD/sodipodi-0.dtd"
   xmlns:inkscape="http://www.inkscape.org/namespaces/inkscape"
   width="203.76259mm"
   height="207.71376mm"
   viewBox="0 0 721.99342 735.99364"
   id="svg3458"
   version="1.1"
   inkscape:version="0.91 r13725"
   sodipodi:docname="tekening.svg">
    <style type="text/css" >
      * {
				margin: 0;
				padding: 0;
				font-style: normal; 
				font-variant: normal; 
				font-weight: normal; 
				font-stretch: normal; 
				font-size: 12px; 
				line-height: normal; 
				font-family: Arial, sans-serif; 
				background: rgb(255, 255, 255);
			}
			body {
				overflow: hidden;
			}
			#message, #title {
				position: absolute;
				width: 100%;
				text-align: center;
				font-weight: 700;
			}
			#message {
				top: 10px;
			}
			#title {
				bottom: 10px;
			}
			#states a {
				cursor: pointer;
			}
			#states a:hover {
				color: #FFFFFF;
			}
			#states a line {
				stroke: #444;
				stroke-width: 1px;
			}
			#states a path { 
				transition: fill .5s ease; 
				-moz-transition: fill .5s ease; 
				-webkit-transition: fill .5s ease; 
				fill: #3C96C8;
			}
			#states a:hover path { 
				transition: fill .5s ease; 
				-moz-transition: fill .5s ease; 
				-webkit-transition: fill .5s ease; 
				fill: #2c759d !important;
			}
			#states a:hover path { 
				cursor: pointer; 
				fill: #2c759d;
			}
			#states a text { 
				cursor: pointer; 
				fill: #222222; 
				display: initial;
			}
			#states a:hover text { 
				fill: #FFFFFF; 
				color: #FFFFFF;
			}
			#states a.inverse text { 
				fill: #222222;
			}
    </style>
  <defs
     id="defs3460" />
  <sodipodi:namedview
     id="base"
     pagecolor="#ffffff"
     bordercolor="#666666"
     borderopacity="1.0"
     inkscape:pageopacity="0.0"
     inkscape:pageshadow="2"
     inkscape:zoom="0.80675645"
     inkscape:cx="363.66907"
     inkscape:cy="508.64174"
     inkscape:document-units="px"
     inkscape:current-layer="layer1"
     showgrid="false"
     inkscape:snap-page="false"
     fit-margin-top="0"
     fit-margin-left="0"
     fit-margin-right="0"
     fit-margin-bottom="0"
     inkscape:window-width="1264"
     inkscape:window-height="1002"
     inkscape:window-x="0"
     inkscape:window-y="0"
     inkscape:window-maximized="0" />
  <metadata
     id="metadata3463">
    <rdf:RDF>
      <cc:Work
         rdf:about="">
        <dc:format>image/svg+xml</dc:format>
        <dc:type
           rdf:resource="http://purl.org/dc/dcmitype/StillImage" />
        <dc:title></dc:title>
      </cc:Work>
    </rdf:RDF>
  </metadata>
  <g 
     inkscape:label="Laag 1"
     inkscape:groupmode="layer"
     id="layer1"
     transform="translate(-8.378176,-298.82918)">
    <g
       transform="matrix(1.58546,0,0,1.58546,-305.62119,253.48457)"
       id="states">
      <a
         id="s01"
         xlink:href="https://nl.wikipedia.org/wiki/Drenthe"
		 target="_blank" 
		 data-rel="external">
        <path
           style="stroke:#ffffff;stroke-width:1.5;stroke-dasharray:1, 0"
           inkscape:connector-curvature="0"
           d="m 585.43489,178.7301 -7.83347,0.777 -2.28254,1.76524 -1.52334,1.32742 0.37098,5.40035 -4.93321,-1.71888 -0.92244,1.48556 -1.95239,-0.0265 -1.02296,-2.11193 -1.224,1.6319 -3.46874,1.00374 -2.18982,-4.97296 -3.87498,-2.74553 0.022,-1.79934 -3.17397,1.31233 -7.78057,-3.68629 -2.57144,1.32379 -1.34459,-0.91342 0.2887,1.20305 -1.94783,-0.76947 0.61175,-1.19783 -1.34186,-1.05959 -3.67211,-9.64486 4.85001,-2.80908 3.36336,-4.47739 -8.35332,-10.01483 8.97733,-6.24023 5.05765,-6.12875 4.68575,0.35501 3.13779,3.20475 6.10746,-4.44871 3.41878,-6.59724 -6.68344,-10.36288 0.52653,-5.5913 -6.34681,-2.34734 1.09014,-2.25832 2.87027,1.24524 1.25866,-3.46747 0.76031,-3.4e-4 1.77049,-7.694531 2.64186,-4.216032 3.67465,-1.620603 0.47789,-1.511017 3.67252,-1.315082 4.69873,1.434669 3.40156,6.424194 1.84153,-1.033317 0.56037,3.041728 2.71502,1.719531 2.20259,5.02214 5.95951,-2.62233 5.00009,0.84506 19.77946,20.8058 6.94569,11.61553 2.57184,2.0357 -2.04086,6.63286 2.25042,0.15294 3.69522,3.66421 -0.20004,1.71533 2.21485,0.55676 -2.01573,3.67112 -0.90632,20.48278 -0.84917,7.41167 -1.13494,1.89206 -6.48351,-2.33434 -3.96223,1.20818 -4.41418,-2.1456 -10.49905,-0.24891 -5.85676,1.64314 -2.66821,3.30102 -0.74845,-0.16244 0.81148,-3.43371 z"
           id="path5" />
        <text
           x="567.05811"
           y="146.28581"
           id="text7">Drenthe</text>
      </a>
      <a
         id="s02"
         xlink:href="https://nl.wikipedia.org/wiki/Limburg_(Nederland)"
         class="inverse"
		 target="_blank" 
		 data-rel="external">
        <path
           style="stroke:#ffffff;stroke-width:1.5;stroke-dasharray:1, 0"
           inkscape:connector-curvature="0"
           d="m 539.70792,421.77636 -4.30961,2.883 3.41909,1.90905 -0.68116,1.44976 -4.21435,0.40871 -9.26886,8.83948 -2.3786,0.25784 -2.66395,4.66955 -1.07677,0.31265 0.4028,1.57241 -1.60512,1.80045 0.30967,1.25233 -2.43169,-0.0282 -1.9605,-3.4002 -5.53087,0.79152 2.50698,7.56243 1.17578,0.4731 -0.4328,3.65145 4.70085,-2.23635 1.70413,1.45427 6.39443,-0.0373 -2.8202,3.98614 1.23424,1.08311 -0.58987,0.66091 0.67296,2.34644 3.09158,0.32623 1.30021,1.70265 2.47557,-0.20254 -0.73852,4.29367 1.44694,3.30495 -1.63055,4.43825 -1.08802,-0.75547 -4.39969,1.01627 1.15479,3.82532 -0.4032,1.06259 -2.77258,1.91743 -2.47912,-1.80885 -1.44269,1.86609 0.5695,1.74124 4.58229,2.61934 -0.48701,2.88034 -4.80593,-0.76812 -5.56361,1.10546 -2.39035,-2.26011 -6.86999,1.47488 -4.04412,-3.98763 -4.16368,3.57128 -4.18071,0.24462 1.43305,-3.97377 -0.42326,-3.11525 -4.91791,-3.88577 -0.0554,-6.88713 3.6181,-1.53948 1.60066,-3.8589 2.02829,-0.47326 3.42406,-7.07198 -0.54548,-1.02039 -2.12223,0.47748 -0.5249,-1.21997 3.7774,-4.5631 1.15713,-5.28424 -1.05732,-1.99107 1.89473,-4.44473 1.94135,0.18914 0.12981,-4.78543 3.18875,-1.10627 -1.78245,-3.28654 4.22499,-4.06215 -2.49634,-3.63513 -5.20732,1.38146 -0.005,-3.45922 -1.98715,-1.01201 -5.42366,1.007 -5.49156,-0.82399 -0.38507,-2.17058 -8.20597,-3.49199 5.67335,-1.51017 0.59979,-7.12054 4.83218,-6.82481 20.17284,-6.02784 6.16846,-5.20799 -6.07605,-10.68548 -3.41169,-18.87281 6.88145,2.38025 9.85101,-3.00596 2.91141,2.94941 1.62205,-1.01148 -0.86843,-1.47003 0.0215,-2.63482 -1.30598,-1.91339 -0.40929,-3.95803 -5.8373,-5.46609 -0.9647,-9.24986 -7.05026,-2.54134 -1.00564,-4.26518 -1.17273,-1.03573 0.31181,-2.93808 2.48317,-0.255 4.26015,5.88058 1.92199,-1.01488 0.81736,1.77354 4.39107,0.33823 3.82199,3.11303 -1.63714,0.95873 0.46512,5.42373 8.08174,2.82268 -1.33263,6.17361 -1.07302,0.38551 -0.41253,2.45871 6.67898,5.86824 2.26885,4.61847 4.1645,5.16803 1.12014,6.48869 -1.72885,9.71129 0.0942,1.19252 1.8464,-0.11354 -1.09126,1.86289 0.93611,4.1347 -3.35504,4.39389 -2.46149,0.182 -2.0296,5.54676 -7.73721,9.53394 1.36841,3.1305 -1.83008,0.20986 0.47413,5.92012 1.37054,1.96812 3.06584,-0.0852 4.68281,-3.53059 2.51692,0.96955 z"
           id="path10" />
        <text
           x="570.55103"
           y="393.10809"
           id="text12">Limburg</text>
        <line
           x1="514.55103"
           y1="418.10809"
           x2="564.55103"
           y2="393.10809"
           id="line14" />
      </a>
      <a
         id="s03"
         xlink:href="https://nl.wikipedia.org/wiki/Noord-Holland"
         class="inverse"
		 target="_blank" 
		 data-rel="external">
        <path
           style="stroke:#ffffff;stroke-width:1.5;stroke-dasharray:1, 0"
           inkscape:connector-curvature="0"
           d="m 377.65018,207.22324 2.36451,-12.93142 2.92732,-26.26436 6.3616,-21.46192 1.2384,-13.15902 0.95709,-2.8966 5.29173,-1.21512 1.68902,1.86861 -0.22526,-1.58798 0.95709,-0.14065 -0.95709,4.85851 1.06957,2.84837 7.26236,5.04029 6.24882,-2.42604 3.04,-4.43493 7.26236,-1.77489 1.57391,1.91509 -1.06076,-0.29536 -0.14268,1.50928 1.05701,-0.30791 6.71678,13.07716 -0.99975,12.04108 1.66125,0.59293 0.31292,2.55408 2.72222,2.39134 2.56221,0.29072 1.79816,-2.71153 6.63136,0.27894 1.20809,1.049 -1.20465,0.30366 2.41214,0.59472 0.61246,4.50395 1.65933,1.64714 -3.45455,3.01017 -2.40677,0.30658 -1.63856,5.40351 -7.197,4.97171 -3.30255,0.61376 -0.61114,-2.2448 -4.06499,-1.47893 -1.79562,1.50815 -1.81164,-1.48828 -2.69405,1.96427 0.034,5.69129 1.07859,4.78335 5.60515,10.58517 -2.68087,3.00201 0.91341,2.83244 -3.59064,0.46756 2.24909,0.58445 -0.57831,3.73462 4.04422,0.87315 -2.22599,3.44188 -3.57677,2.10757 -2.06588,4.48304 -1.35006,-0.88524 -1.78712,0.90532 -1.65436,-1.62796 -0.59514,0.45089 2.25427,1.92179 -2.23653,0.61089 4.35368,3.54534 2.83308,-0.61242 0.60081,0.59169 -0.89062,0.89846 0.60212,0.89023 6.26453,-0.92754 4.48795,2.21129 2.85912,3.41305 8.48727,-1.81672 0.74805,1.48311 3.58578,1.77859 1.63775,-1.49154 0.89629,0.74224 -2.23359,1.7896 1.19705,2.07867 -4.17584,-0.73357 -7.39369,17.24895 -6.99321,-0.56451 -7.86975,2.5616 -0.46279,-2.96386 -0.89336,-0.14313 0.43371,-2.22807 -1.49426,-1.0302 1.34114,0.28935 0.42054,-4.6052 1.78235,-0.90057 -1.50794,-3.40688 -1.04181,0.30144 -0.9123,-3.11586 4.31558,-1.36223 -0.7526,-1.33382 -3.57079,1.35867 -0.17024,-3.56816 -0.74662,-0.14434 -4.74635,4.04558 -4.3243,-0.11826 0.30917,1.63559 -1.76695,2.83375 -4.17149,0.0321 -3.99223,3.59855 -5.50432,0.64373 -4.28418,3.45542 -1.20698,-1.62067 0.12201,-2.67338 -2.08787,-0.27615 -8.60128,3.21234 -6.35167,-0.69863 -0.67002,-1.29603 1.32544,-1.20444 0.52704,-5.65224 2.06335,-1.95781 2.32154,-5.53015 -2.84513,-0.85899 -2.07055,1.51303 -7.16437,-3.10231 6.69925,-17.20006 0.73193,-4.0637 4.10958,-2.30999 -4.16592,0.41551 z m 46.72591,-73.49018 12.24279,-9.95471 -11.4608,10.3226 z m 6.90101,79.72946 2.5461,0.28656 -4.48116,1.96117 0.88362,-2.98969 -0.91575,-3.57949 z m -11.85914,18.70128 -1.95635,-2.37029 3.00069,2.21452 z m -24.31585,-110.21048 -1.18226,-0.18678 1.85785,2.43189 -4.95419,1.54321 -0.90075,-6.54864 1.12592,-6.08628 10.64,-17.820581 3.77193,-2.442435 1.8014,4.366962 2.81484,3.285574 -0.9571,2.76743 -0.056,6.70404 -2.4772,1.64 -0.16882,2.52954 -2.42085,3.51132 -2.92732,0.79567 -2.81494,4.58533 z m -10.13323,4.72398 4.89754,0.51398 -5.06657,2.94435 -1.06957,-1.91565 z m -12.89203,86.3962 3.26526,1.24715 -2.87118,-0.13835 z"
           id="path17" />
        <text
           x="277.51242"
           y="175.2429"
           id="text19">Noord-Holland</text>
        <line
           x1="406.51242"
           y1="193.2429"
           x2="354.51242"
           y2="175.2429"
           id="line21" />
      </a>
      <a
         id="s04"
         xlink:href="https://nl.wikipedia.org/wiki/Noord-Brabant"
		 target="_blank" 
		 data-rel="external">
        <path
           style="stroke:#ffffff;stroke-width:1.5;stroke-dasharray:1, 0"
           inkscape:connector-curvature="0"
           d="m 440.8074,332.18571 4.41833,1.3181 5.15787,-0.61018 5.44585,-2.94735 1.46721,-5.58811 3.8308,-5.44692 3.39416,2.05856 3.24581,-0.44157 1.91682,-2.94147 4.67502,2.35744 2.11614,-1.76354 3.24773,-0.43615 4.86613,1.62921 2.64399,4.12643 3.09381,0.89159 1.31987,2.06276 2.65067,0.7445 2.78779,2.95075 10.75987,-0.68216 1.17273,1.03573 1.00564,4.26518 7.05026,2.54134 0.9647,9.24986 5.8373,5.46609 0.40929,3.95803 1.30598,1.91339 -0.0215,2.63482 0.86843,1.47003 -1.62205,1.01148 -2.91141,-2.94941 -9.85101,3.00596 -6.88145,-2.38025 3.41169,18.87281 6.07605,10.68548 -6.16846,5.20799 -20.17284,6.02784 -4.83218,6.82481 -0.59979,7.12054 -5.67335,1.51017 -1.04505,-1.19559 -0.89123,-6.10181 -5.61305,-5.05527 -7.64246,5.93106 -6.38653,-1.90749 -2.3864,1.47172 -9.48247,0.31853 -1.22756,-1.82686 1.75733,-5.20448 -1.28896,-1.27121 -2.33766,-1.6909 -7.42216,1.29549 -1.44937,-7.23366 -4.72112,-5.68289 2.19812,-5.4254 -0.2734,-3.31676 -1.28713,-2.92703 -3.15036,-0.74779 -1.39657,-2.2554 -1.96384,2.3844 -1.14487,5.14399 -7.14308,6.76021 -5.20286,-2.94501 -5.24846,1.02209 -5.09889,-0.99236 -0.94514,-2.1855 6.24872,1.05667 -0.58023,-2.80128 1.08416,-3.00758 -0.13102,-3.53076 -6.00846,-3.90505 -2.75546,1.02504 -4.52777,6.78139 -2.90796,1.85221 0.0354,3.09899 -8.94388,-0.97645 -5.4417,1.26166 -0.68806,-3.80806 2.19154,-4.08039 -1.43974,-2.05365 -5.9958,0.61378 -8.43549,5.2975 -0.31484,5.07145 3.27377,5.06815 -0.19283,2.95334 -2.63497,1.2664 -5.09038,-0.11133 -0.91291,-3.33766 -6.01171,0.42813 -0.97513,-1.41094 -0.37067,-4.80572 1.2924,-1.48038 -1.8243,-4.20258 2.77562,-0.33693 -0.48336,-2.76646 -2.9715,-2.581 -2.33046,0.79231 -0.0395,-2.35976 2.9342,0.24334 -2.67813,-2.44054 -0.86924,0.5993 1.33091,-8.06558 -4.51926,-6.80282 0.67599,-3.38082 1.73513,-1.64136 12.74105,-2.84436 2.9109,-1.94978 0.89487,0.86618 -0.30694,-0.87549 2.00286,-3.84241 3.20051,-2.54114 7.97625,2.23993 6.7486,-1.5525 1.2086,2.6267 -0.76719,-2.63177 1.32057,-0.30929 0.76517,2.48544 -0.16446,-1.4654 1.17688,-0.0141 -1.3379,-1.15802 1.60998,-0.75271 0.75108,1.31196 -0.46005,-1.60888 3.65621,-2.09693 10.73322,-1.43253 4.87708,2.01001 3.82452,-0.32693 -10.03534,-2.5516 -5.58925,0.64473 5.26153,-4.01997 3.62135,-6.64945 7.65513,-1.53881 6.75174,-4.46766 9.00752,0.82106 6.82328,6.72733 3.2377,-1.19282 3.84377,2.33501 -0.28657,1.91188 0.74105,1.02565 -1.75955,1.9175 0.29863,0.88027 z m -25.15307,46.96993 -3.26658,0.69158 -0.1905,2.91051 2.33816,0.16774 0.11248,-2.16773 1.46771,-0.64434 z"
           id="path24" />
        <text
           x="410.54333"
           y="358.87949"
           id="text26">Noord-Brabant</text>
      </a>
      <a
         id="s05"
         xlink:href="https://nl.wikipedia.org/wiki/Flevoland"
         class="inverse"
		 target="_blank" 
		 data-rel="external">
        <path
           style="stroke:#ffffff;stroke-width:1.5;stroke-dasharray:1, 0"
           inkscape:connector-curvature="0"
           d="m 482.40888,181.97007 -2.40443,-1.49425 0.33298,-17.71045 6.49921,-10.38515 6.73644,-1.24318 -0.20277,-1.41737 2.54327,0.75024 3.60442,3.64574 0.58986,2.39764 2.85487,3.1567 4.39087,0.62893 6.15134,4.84333 2.04187,6.14867 2.39937,2.74014 -3.18805,4.63888 3.31644,0.63916 1.7712,1.75944 -2.13357,2.87325 -13.38431,4.41914 -17.13232,-0.0855 z m -0.12058,46.63767 -0.30117,1.04206 -4.92834,-0.45571 -2.54296,2.82605 0.29609,2.08482 1.1929,0.89469 -2.39897,9.51722 -12.81735,3.56492 -10.60139,-9.79852 -3.732,-1.92431 -6.87172,-2.06229 -5.21583,2.10457 0.14359,-1.3404 -1.64626,-1.03416 0.43421,-3.12923 -1.06207,-3.71886 28.22761,-18.87346 4.04422,-4.03675 -0.6,-1.94342 1.34946,-1.04628 0.90004,-2.99143 4.05019,-0.14883 6.91124,-6.72678 7.66343,-2.23101 1.64698,1.80128 15.75074,3.05411 4.32572,4.81002 0.10853,7.32629 -5.14541,10.27642 -5.85666,5.04634 -2.54032,-0.45704 -6.28996,3.11052 z m -15.37957,-32.41487 -0.74966,-4.48997 -5.86163,-9.2862 -3.91369,-4.34436 -5.5706,-2.54052 -1.35077,1.50296 -1.20516,-0.59741 1.65224,-1.35377 6.62467,2.98874 3.76311,4.04438 5.99995,9.57166 1.06207,3.60621 z m -2.40058,1.64538 -1.32676,3.23685 0.5778,1.84782 -0.74946,0.74778 0.14927,-2.84017 z"
           id="path29" />
        <text
           x="431.32663"
           y="190.55734"
           id="text31">Flevoland</text>
        <line
           x1="480.32663"
           y1="202.55734"
           x2="460.32663"
           y2="195.55734"
           id="line33" />
        <title
           id="title35" />
      </a>
      <a
         id="s06"
         xlink:href="https://nl.wikipedia.org/wiki/Friesland"
		 target="_blank" 
		 data-rel="external">
        <path
           style="stroke:#ffffff;stroke-width:1.5;stroke-dasharray:1, 0"
           inkscape:connector-curvature="0"
           d="m 461.30652,97.879153 0.33785,-2.92196 -0.78828,-1.173747 1.06958,-0.281673 -0.61915,-0.423038 3.49033,-6.672616 8.38827,-6.631334 4.95408,-6.354943 6.47409,-4.00472 22.85624,-10.609797 1.57624,-1.132214 -0.67559,-1.275312 6.24892,1.227566 7.5999,-2.313075 7.65634,-0.944408 4.95419,0.795004 4.72892,-1.78646 1.28085,0.731875 -2.48134,3.330496 0.87693,3.971781 5.02006,2.185494 0.89487,1.989312 1.99596,-0.891634 3.34806,1.103281 -0.66769,4.864483 1.36841,0.472344 -4.00611,3.604069 0.10994,3.502143 -1.22309,0.289891 -1.25968,3.634598 -1.53854,1.351034 1.48869,3.206321 -3.08094,3.307921 -2.33746,5.287068 -0.0554,5.458877 3.00656,3.21255 6.98005,0.83347 4.22073,2.77574 -1.09014,2.25832 6.34681,2.34734 -0.52653,5.5913 6.68344,10.36288 -3.41878,6.59724 -6.10746,4.44871 -3.13779,-3.20475 -4.68575,-0.35501 -5.05765,6.12875 -12.6234,8.61723 -3.17447,0.42525 0.73953,1.81228 -2.8883,1.9235 -0.58915,-1.19921 -3.92505,0.12073 -1.47045,-3.43199 -1.68497,1.4537 -2.86824,-0.0196 -1.52912,3.00044 -3.33427,2.38662 -4.37051,-0.77623 -1.6495,-1.964 -3.02967,2.39227 -0.58986,-2.39764 -3.60442,-3.64574 -2.54327,-0.75024 0.20277,1.41737 -1.29149,-0.37994 0.14186,-0.88946 -0.74348,1.04345 -1.5051,-1.35953 -3.62459,0.13942 0.005,-1.65661 -1.35635,-1.05762 -2.57194,1.65047 -3.47401,0.14347 -1.06096,2.25631 -3.02034,0.59831 -9.20836,-3.7695 -3.92667,0.90447 -5.29041,-3.91133 -0.90926,-2.1086 1.50925,-2.11189 3.17427,-1.20924 0.90572,-2.71537 -1.36375,-3.46934 1.36172,-0.9064 -0.3039,-2.11307 0.60527,-0.45287 -1.67018,-6.64538 1.06005,-1.51227 0.15078,-1.66268 -1.21346,-0.60362 0.90794,-3.47881 -0.60557,2.26839 -1.06288,-1.81331 -1.51737,-0.30069 0.45388,-1.51341 -1.52132,-3.47843 1.82177,0.30022 2.27909,3.47795 -2.43383,-6.65688 -4.09437,3.94157 -0.26164,-0.9507 -0.0418,1.10247 -0.9121,-0.90682 -3.18552,1.06636 -13.41157,11.05406 12.55409,-11.1399 5.46065,-1.68657 3.60281,-2.81204 0.45062,-2.25019 2.08291,-2.57912 z m 95.81634,-60.766898 -10.24591,5.346624 -9.73935,0.898636 -0.16882,1.607833 -2.36441,1.89047 -0.90076,-1.37032 0.73193,-4.919092 3.04,-2.318542 z m -31.6386,4.920933 2.02687,1.371656 -0.11278,1.323395 -5.12291,0.142471 z m 1.57624,3.782831 0.39419,0.992493 -1.74526,0.520187 z m -35.46646,4.253893 -5.91118,1.416728 -2.75849,-1.13336 -1.2386,-2.929975 1.35108,-2.552595 3.09634,-1.418877 6.3616,2.222585 21.39238,-1.560181 4.5602,0.851111 -20.49193,5.293364 -0.22516,-1.228477 -4.2787,-0.567361 z m -49.70967,11.896484 -3.37795,2.924259 -3.65925,-1.367756 4.39118,-6.888543 31.30065,-8.927579 4.8415,0.851199 -1.06957,1.936814 -3.09634,0.04728 -3.82807,1.983723 0.11278,0.897895 -1.74536,-0.283758 2.02656,0.89782 -0.33764,0.660584 -7.99418,0.424946 -5.17905,3.634474 -4.89785,1.03828 0,1.037961 -3.82827,-0.42427 z m 2.75849,18.467476 2.25173,0.423099 -3.09614,0.329587 z m -11.31559,-7.579312 2.08301,0.611737 -3.20882,2.872335 -1.68902,-0.800308 z m -10.80902,3.248836 -4.16592,2.400643 -0.16882,0.847245 1.46376,0.752798 -8.05032,6.631371 -4.2786,0.141139 -1.97043,1.974131 -1.18205,-1.456815 0.50667,-1.787156 14.69323,-10.915611 6.30526,-3.155687 3.77163,0.75378 -0.67549,1.365931 -2.92732,0.141055 z"
           id="path38" />
        <text
           x="476.39844"
           y="101.64772"
           id="text40">Friesland</text>
      </a>
      <a
         id="s07"
         xlink:href="https://nl.wikipedia.org/wiki/Gelderland"
		 target="_blank" 
		 data-rel="external">
        <path
           style="stroke:#ffffff;stroke-width:1.5;stroke-dasharray:1, 0"
           inkscape:connector-curvature="0"
           d="m 591.46321,283.08524 6.22156,1.74839 5.86528,5.88522 1.82714,-0.0885 0.30602,4.92445 -3.00564,0.75946 -0.34048,4.33542 -7.52512,6.5119 -3.91734,-4.13772 -10.71205,4.17023 -9.99745,6.41901 -1.82339,-0.56571 -0.70812,-1.62438 -2.35711,1.33412 -0.71734,-1.81695 -3.0855,-0.4676 -0.32568,2.4296 1.86494,3.04568 -0.70437,0.90086 0.70204,1.68959 -3.08135,-2.44579 -1.21174,0.67552 -2.24788,-2.96348 -4.29481,0.5755 -0.5621,-3.2326 -1.62204,-0.96672 -7.13751,1.49221 -5.01864,-5.81989 -5.15837,0.67005 -1.11112,1.62053 3.15552,0.6664 0.6384,2.365 2.27047,1.95488 0.20135,2.22731 -5.97076,-0.31658 -4.23685,-2.94366 -1.46579,3.01879 -3.68995,2.33625 -4.58553,0.0661 -0.75686,1.22087 1.12885,1.22133 -1.06278,0.62911 2.7816,2.43873 0.80641,2.66102 -0.66769,1.65547 1.08001,0.60916 -3.656,2.49507 -0.66242,2.02588 -0.0706,-1.33449 -1.92199,1.01488 -0.13923,-1.1761 -1.76431,-0.59876 -2.35661,-4.10572 -2.48317,0.255 -0.31181,2.93808 -9.73418,0.97942 -2.49543,-1.18456 -1.31805,-2.06345 -2.65067,-0.7445 -1.31987,-2.06276 -3.09381,-0.89159 -2.64399,-4.12643 -4.86613,-1.62921 -3.24773,0.43615 -2.11614,1.76354 -4.67502,-2.35744 -2.50719,3.23585 -3.68802,0 -2.36158,-1.91137 -3.8308,5.44692 -1.46721,5.58811 -5.44585,2.94735 -5.15787,0.61018 -2.94606,-1.61645 -9.4237,0.91791 -0.29863,-0.88027 1.75955,-1.9175 -0.74105,-1.02565 0.28657,-1.91188 -3.84377,-2.33501 -2.94201,1.33843 -2.37586,-3.0751 -3.25432,-1.5994 -1.48879,-2.19844 2.51114,0.42656 0.56909,-3.6828 -3.25128,-0.56947 -0.60719,-2.64718 6.795,0.25465 -0.89234,-1.17358 0.43675,-1.18083 2.50901,-0.45531 1.02408,-2.0683 2.36451,-0.0112 6.75022,-13.00948 2.52158,1.46665 3.09887,-3.25835 8.29981,3.96592 3.10465,-2.21962 3.5488,-0.15181 5.48172,-2.6613 5.03516,0.29551 12.12939,6.65799 2.22336,-1.61823 -0.73457,-2.21591 0.59534,-1.32773 -3.98595,-6.07817 0.30369,-3.82945 -3.25827,-2.37106 0.45266,-4.88192 -1.18094,-4.44316 -1.93121,0.59029 0.59128,2.22099 -0.74206,-0.14843 0.14713,1.18472 -0.89123,0.73887 -4.00773,1.32899 -2.52229,-1.77632 2.82112,-2.21977 -0.14754,-1.92495 0.89194,-1.18468 -0.74257,-0.44455 2.22781,0.29785 -1.33557,-1.77873 1.93303,-1.92478 -3.2682,-2.37349 0.14936,-1.18571 -1.18914,-0.89052 0.74368,-0.44423 -4.01513,-0.88985 -4e-4,-5.49023 -4.76459,-2.66891 1.03957,-4.30806 6.85348,-2.52773 0.44668,0.89201 5.3655,-1.18556 3.29171,-8.4722 4.19692,-3.86129 1.68659,-2.91406 -0.3425,-1.0918 1.21782,0.85802 7.45357,-3.97505 11.25145,-8.89926 1.3604,-2.67951 -0.74369,-0.89859 1.05955,-2.23417 -0.0111,2.09015 1.35523,-1.48585 2.59616,-8.79936 1.05174,-0.44232 2.53121,2.70512 2.51276,5.24373 2.55694,-1.62602 1.48889,1.20561 4.22854,-4.60024 2.1049,-0.8802 7.28445,6.48442 0.26164,4.1816 1.77607,2.10461 -0.93399,4.01921 2.0675,1.35486 -0.91646,3.42481 -4.1952,1.30369 -0.30926,1.18878 1.78184,1.20718 -1.95046,1.02549 -0.94321,5.49977 1.34276,0.0113 0.42408,2.68172 1.78985,0.0154 2.62109,6.57517 -0.31129,1.62202 2.97231,0.77065 -1.21317,2.21667 2.35641,2.69502 0.17085,-2.22562 1.64261,-0.57695 3.56126,1.37222 -0.2885,-0.89372 10.86121,0.86345 1.78854,-0.12706 0.0182,-1.48493 1.20444,-1.02515 6.1103,-0.21911 4.67076,6.89334 1.33284,0.46343 1.0035,2.68515 1.62336,0.9129 9.68271,-0.89406 2.18089,3.1497 1.81063,-1.60261 1.0261,0.9061 0.46562,-1.17824 2.80025,1.52948 0.22962,4.00633 -1.21874,1.75845 5.46268,2.01862 4.24749,-0.0617 -0.38801,3.51405 -1.21985,0.062 0.72626,1.81262 -1.71243,1.93615 -4.26918,0.21911 0.65056,0.58046 -1.10139,1.90214 z"
           id="path43" />
        <text
           x="498.2796"
           y="279.677"
           id="text45">Gelderland</text>
      </a>
      <a
         id="s08"
         xlink:href="https://nl.wikipedia.org/wiki/Groningen_(provincie)"
		 target="_blank" 
		 data-rel="external">
        <path
           style="stroke:#ffffff;stroke-width:1.5;stroke-dasharray:1, 0"
           inkscape:connector-curvature="0"
           d="m 609.06542,116.48826 -12.65958,-13.10403 -4.4006,-0.37991 -5.95951,2.62233 -2.20259,-5.02214 -2.71502,-1.719531 -0.56037,-3.041728 -1.84153,1.033317 -3.40156,-6.424194 -4.69873,-1.434669 -7.82506,4.446702 -2.64186,4.216032 -1.77049,7.694531 -0.76031,3.4e-4 -1.25866,3.46747 -8.2993,-4.64054 -5.77175,-0.21391 -3.00656,-3.21255 0.0554,-5.458877 2.33746,-5.287068 3.08094,-3.307921 -1.64758,-2.599716 2.95711,-5.592237 1.22309,-0.289891 -0.10994,-3.502143 4.00611,-3.604069 -1.36841,-0.472344 0.66769,-4.864483 -3.34806,-1.103281 -1.99596,0.891634 -1.34986,-2.298986 -4.11282,-1.261587 -1.32918,-4.586014 2.43889,-3.731871 5.79849,-0.519218 5.62978,3.163526 2.70205,-2.455603 4.33484,-1.416426 17.45183,-2.409293 12.32902,-4.490124 7.93775,-0.993002 4.67268,1.938729 1.68872,-1.560167 2.08291,0.897984 -0.16883,1.3711 -2.58967,-0.28349 2.19569,0.472363 -0.67549,0.661871 2.36421,0.471099 -0.90065,-0.660296 0.61935,-1.749114 4.05323,3.119828 -1.12591,5.195703 1.46376,1.935403 0.90075,7.313549 4.89784,4.337043 -1.12591,-0.754222 0.11248,0.896064 6.53043,2.921578 1.18225,-0.753734 -0.16882,1.365618 1.57624,0.65982 5.23539,0.376771 2.25183,-1.413077 -1.46356,1.883759 -0.61945,4.37879 1.63268,2.588164 12.62958,3.78884 5.79414,0.473169 0.90906,7.142713 -1.48251,2.397376 2.26886,1.939065 -2.9864,0.495375 -3.67536,6.0057 0.78939,2.49238 2.21109,1.90543 -0.76486,9.12274 0.59047,7.27766 0.67184,0.60295 -1.39212,1.20863 -3.60331,9.65978 -11.15407,13.22026 -0.79455,1.30597 0.43695,1.28863 -2.0439,-0.0528 0.20004,-1.71533 -3.69522,-3.66421 -2.25042,-0.15294 2.04086,-6.63286 -2.57184,-2.0357 -6.94569,-11.61553 z m -28.86116,-82.12214 0.78828,0.947537 -1.29494,-0.28447 z m -11.42796,-4.909617 3.88441,3.726171 -4.2787,1.657485 -1.5199,-4.736511 z"
           id="path48" />
        <text
           x="569.47534"
           y="84.693634"
           id="text50">Groningen</text>
      </a>
      <a
         id="s09"
         xlink:href="https://nl.wikipedia.org/wiki/Overijssel"
		 target="_blank" 
		 data-rel="external">
        <path
           style="stroke:#ffffff;stroke-width:1.5;stroke-dasharray:1, 0"
           inkscape:connector-curvature="0"
           d="m 531.78162,240.04566 -1.78985,-0.0154 -0.42408,-2.68172 -1.34276,-0.0113 0.94321,-5.49977 1.95046,-1.02549 -1.78184,-1.20718 0.30926,-1.18878 4.1952,-1.30369 0.91646,-3.42481 -2.0675,-1.35486 0.93399,-4.01921 -1.77607,-2.10461 -0.26164,-4.1816 -7.28445,-6.48442 -2.1049,0.8802 -4.22854,4.60024 -1.48889,-1.20561 -2.55694,1.62602 -4.29704,-7.49604 -1.79867,-0.0105 -1.01809,-5.53792 -2.07967,-3.75208 -5.84683,-1.37509 5.55631,-0.42278 0.77338,-4.1878 4.97658,-1.4767 3.73778,1.07801 3.16819,-1.92598 3.00463,0.021 3.62621,-2.51961 -5.65095,-4.52915 -3.17325,-0.33369 -0.18707,-0.98496 3.23193,-3.95939 -2.39937,-2.74014 -2.04187,-6.14867 -6.15134,-4.84333 -4.39087,-0.62893 -2.38812,-3.61632 2.56292,-1.93265 1.6495,1.964 4.37051,0.77623 3.33427,-2.38662 1.52912,-3.00044 2.86824,0.0196 1.68497,-1.4537 1.47045,3.43199 3.92505,-0.12073 0.58915,1.19921 2.8883,-1.9235 -0.73953,-1.81228 2.87128,-0.27729 3.94926,-2.52496 8.35332,10.01483 -3.36336,4.47739 -4.85001,2.80908 3.67211,9.64486 1.34186,1.05959 -0.61175,1.19783 1.94783,0.76947 -0.2887,-1.20305 1.34459,0.91342 2.57144,-1.32379 7.78057,3.68629 3.17397,-1.31233 -0.022,1.79934 3.87498,2.74553 2.18982,4.97296 3.46874,-1.00374 1.224,-1.6319 1.02296,2.11193 1.95239,0.0265 0.92244,-1.48556 4.93321,1.71888 -0.37098,-5.40035 3.80588,-3.09266 6.03875,-1.40618 9.85467,4.21256 -0.81148,3.43371 1.79512,0.93134 0.49056,2.24128 -0.84624,3.11603 4.45492,4.24288 -3.8611,-0.27273 -1.21854,2.43125 -3.47999,-0.64149 2.69942,4.6633 0.32397,7.2691 5.19181,3.24107 9.05687,0.38254 0.83671,1.43384 8.92169,2.8331 2.52522,-2.71188 1.2312,-3.24171 1.26677,-0.0679 2.10267,6.75944 2.26672,4.26287 2.13794,1.018 1.81528,5.79635 -5.32223,11.85765 0.70548,1.81385 -0.55236,1.2707 3.85867,6.03335 -4.02294,2.03212 -4.1724,0.26469 -1.98066,5.77427 -5.32273,2.05402 -3.01649,3.50594 -0.4707,4.10701 -2.93745,2.01039 -12.81441,0.099 -3.84114,-1.25039 -1.62154,-0.76823 1.21874,-1.75845 -0.0859,-3.70764 -2.94394,-1.82817 -0.46562,1.17824 -1.0261,-0.9061 -1.81063,1.60261 -2.18089,-3.1497 -9.68271,0.89406 -1.62336,-0.9129 -1.0035,-2.68515 -1.33284,-0.46343 -4.67076,-6.89334 -6.1103,0.21911 -1.20444,1.02515 -0.0182,1.48493 -1.78854,0.12706 -10.86121,-0.86345 0.2885,0.89372 -3.56126,-1.37222 -1.64261,0.57695 -0.17085,2.22562 -2.35641,-2.69502 1.21317,-2.21667 -2.97231,-0.77065 0.31129,-1.62202 z"
           id="path53" />
        <text
           x="552.27075"
           y="228.09402"
           id="text55">Overijssel</text>
      </a>
      <a
         id="s10"
         xlink:href="https://nl.wikipedia.org/wiki/Utrecht_(provincie)"
		 target="_blank" 
		 data-rel="external">
        <path
           style="stroke:#ffffff;stroke-width:1.5;stroke-dasharray:1, 0"
           inkscape:connector-curvature="0"
           d="m 438.16665,295.08355 -2.93796,5.61934 -9.93067,-3.49346 1.02823,-1.48182 -1.04738,-2.06117 -1.48159,-0.13917 -1.01506,1.47831 -3.72228,-1.30196 -2.20349,2.67194 -2.81757,-0.71884 -2.63953,3.41365 -3.98676,1.06351 -1.82613,-5.01366 -4.32916,-5.27004 3.99263,-0.92063 -1.05427,-2.06011 -4.44103,0.6293 -0.45631,-1.32585 3.07466,-4.46357 4.57287,-3.14475 -4.44864,0.33331 0.43635,-1.03922 -0.89295,-0.28901 -0.0457,-5.32866 -3.43844,-2.48777 3.09138,-3.28758 5.35486,0.54817 -0.0222,-2.81624 1.77597,-1.05154 -9.1279,-6.45142 -0.78159,-4.14931 3.7161,-0.77558 3.99223,-3.59855 4.17149,-0.0321 1.76695,-2.83375 -0.30917,-1.63559 4.3243,0.11826 5.49297,-3.90124 0.17024,3.56816 3.57079,-1.35867 0.7526,1.33382 -4.31558,1.36223 0.9123,3.11586 1.04181,-0.30144 1.50794,3.40688 -1.78235,0.90057 -0.42054,4.6052 -1.34114,-0.28935 1.49426,1.0302 -0.43371,2.22807 0.89336,0.14313 0.46279,2.96386 7.86975,-2.5616 6.99321,0.56451 7.39369,-17.24895 9.99146,2.2101 4.02648,3.56209 -1.03957,4.30806 4.76459,2.66891 4e-4,5.49023 4.01513,0.88985 -0.74368,0.44423 1.18914,0.89052 -0.14936,1.18571 3.2682,2.37349 -1.93303,1.92478 1.33557,1.77873 -2.22781,-0.29785 0.74257,0.44455 -0.89194,1.18468 0.14754,1.92495 -2.82112,2.21977 2.52229,1.77632 4.00773,-1.32899 0.89123,-0.73887 -0.14713,-1.18472 0.74206,0.14843 -0.59128,-2.22099 1.93121,-0.59029 1.18094,4.44316 -0.45266,4.88192 3.25827,2.37106 -0.30369,3.82945 3.98595,6.07817 -0.59534,1.32773 0.73457,2.21591 -2.22336,1.61823 -12.12939,-6.65799 -4.44276,-0.29551 -6.07412,2.6613 -2.80886,-0.14426 -3.84459,2.51569 -7.70762,-3.96707 -3.69106,3.2595 z"
           id="path58" />
        <text
           x="420.30807"
           y="278.98495"
           id="text60">Utrecht</text>
      </a>
      <a
         id="s11"
         xlink:href="https://nl.wikipedia.org/wiki/Zeeland_(provincie)"
         class="inverse"
		 target="_blank" 
		 data-rel="external">
        <path
           d="m 270.06792,377.75602 -3.09614,-5.13855 -6.24882,-5.02028 0.39399,-2.71508 14.01764,-8.46813 5.34817,1.26862 5.29183,-2.08441 4.17929,1.22472 7.73204,-2.23052 5.145,0.17817 2.39329,1.99803 2.592,4.48302 -2.60842,1.51943 -0.68542,2.20948 6.15144,-0.42411 1.3834,3.04257 1.74071,-0.91311 5.75411,1.78475 4.02678,2.95713 0.50657,4.11608 3.6103,4.89752 3.99152,2.40675 4.79388,-1.98257 4.11657,1.09718 0.20692,-4.3508 1.79238,1.3977 0.48265,2.61969 1.43428,-1.77541 1.67321,3.91314 -1.2924,1.48038 0.37067,4.80572 0.97513,1.41094 -5.76921,0.40813 1.38412,-2.63556 -3.5562,-2.30104 -4.8415,1.89536 -7.6002,-2.16649 -2.47689,-1.84993 -0.16883,-1.67046 -3.54676,-1.67458 -0.45033,-2.07335 -0.33774,2.1678 -3.15269,-3.61357 -5.4043,1.80676 0.16882,2.48418 -2.53334,6.54449 -2.42085,-0.40652 -6.58646,1.9403 -3.60311,-3.20368 0.11268,-0.90243 -5.12301,-0.67685 -1.68892,-3.20493 -3.20882,-2.48367 0.78797,-1.3102 2.13934,1.26451 -0.39398,1.1292 1.68892,-0.18046 -0.73193,-1.26485 1.5199,-1.17446 -1.5199,1.08438 -2.0829,-0.99363 2.53333,-0.81322 0.2815,-1.71732 -0.45032,0.72296 -1.2386,-1.13018 0.45033,1.13018 -0.78828,0.94866 -2.42055,1.21996 -0.95709,-0.90329 -2.75849,3.11647 -2.87118,0.49682 -1.18226,-1.53593 0.16902,1.58112 -2.58967,0.22564 z m 34.2983,-13.21151 -2.83126,-1.986 -3.34319,1.39174 -4.42928,-1.21523 -5.7532,4.81689 -1.43933,-4.93945 0.98435,-1.77948 -1.28461,1.4941 -3.42729,-2.11099 -0.80601,-2.90877 -1.74252,0.77598 0.1979,2.04443 4.15648,3.63199 3.267,5.98755 1.45828,-0.32728 -1.32918,-0.40726 2.4631,-1.22808 0.5241,-2.64446 2.02515,-1.21845 3.98554,1.07915 2.75596,-1.37932 4.00054,1.81302 z m 31.5627,6.24834 4.38134,2.85141 -4.43698,-2.40795 z m 0.11369,-0.90604 0.088,-0.70098 -1.34216,-1.29238 -8.80475,-0.42363 -2.86916,-4.33372 -5.94542,-3.83452 -0.62239,-1.74456 7.99672,-4.11106 4.12001,0.36225 1.65011,1.87334 -0.30714,-0.72614 5.71834,-0.54217 0.11339,-1.90679 -4.8334,0.81859 -2.86905,-4.19685 2.1584,-2.53239 7.40534,3.09355 -0.4714,-1.7509 -3.56896,-2.28269 3.08469,-0.20142 -1.75114,0.76399 2.53191,1.86154 0.6384,2.92104 0.2584,-2.05657 3.8378,0.96117 -3.3516,1.66834 -1.42059,2.82193 0.79192,3.3408 3.75247,4.91255 -0.94058,5.13552 -0.0222,-1.31608 -1.83565,4.12518 -2.95336,-1.26479 z m -81.13547,35.65449 -0.50028,-3.92066 1.50763,-3.25314 -2.62797,-5.11683 1.35796,1.22582 -0.33946,-1.94716 1.12591,-1.0375 10.18957,-2.88711 2.13935,-1.75912 3.9971,0.27031 4.5599,3.06777 10.02075,2.48054 0.73193,1.93836 6.64291,1.89341 -0.50677,0.85592 1.35107,1.08177 -0.11248,-2.0279 2.13935,-0.40529 3.20883,1.84731 4.8415,0.49537 3.94075,-3.46991 5.17935,-1.35219 1.06947,-3.11169 -0.22516,-2.12007 0.90075,-1.30855 4.2786,0.81219 3.3213,5.683 4.78537,0.99161 4.61624,4.32619 -1.52011,-2.38797 0.28151,-0.94625 -1.85775,-1.17243 2.7585,-0.13502 2.92752,3.65063 -0.39419,-1.26194 0.84462,-0.13499 -1.52021,-0.72103 2.87128,-0.0902 -2.70215,-0.1801 -0.78827,-2.2545 2.13935,-0.72134 0.0563,1.84851 1.85774,1.03662 -1.63278,-1.71274 0.61935,-0.81122 0.50677,0.90146 -0.33795,-1.30776 1.35108,-0.58571 2.05868,1.03973 2.06964,3.06134 -5.43623,7.41429 -8.01517,6.0916 -4.8033,3.22177 -5.80548,1.08505 -3.77011,4.09419 -3.88066,0.88889 -2.23886,1.87581 -1.81346,-0.35562 -0.80043,-2.00579 -6.92026,1.39122 -1.95594,-1.6659 0.082,-4.17813 0.99307,-2.68206 -3.50279,-1.20285 -0.94767,-1.43515 -4.22428,-0.0917 -4.74635,-2.97682 -2.40262,0.20093 -5.1989,-2.58856 -1.28461,2.56312 -1.8393,-1.06712 -4.76935,1.52763 1.12216,6.49414 -1.9613,0.34643 -6.56894,0.11721 -5.90844,-5.06728 0.17987,-1.82148 z m 34.94004,-60.35683 -3.90357,-3.46579 -0.45032,-3.35997 1.12591,-2.72598 7.48722,-3.40889 5.62967,0.36395 0.77683,-1.10206 -0.0814,1.33296 6.61048,-0.87945 2.25254,2.00863 5.73588,-0.41248 0.0238,1.17471 1.32797,0.11959 -0.12058,1.32434 2.55187,2.44455 0.78797,2.62682 8.00321,3.0739 2.17299,-1.80071 4.10754,-0.66141 0.62726,2.18992 1.33121,0.41631 -1.61231,0.32169 -0.92153,-2.18333 -4.39543,0.95972 -1.3072,0.90453 1.05914,1.59361 -0.70488,1.62593 -3.03605,2.69576 -10.0855,2.69005 -3.30397,-3.44904 -1.00371,1.19323 -3.10354,-0.81331 1.58475,-1.50018 -2.16934,1.65903 -1.29889,-5.69067 -5.35486,-2.66996 -0.93531,-2.32727 -2.1894,0.34055 -0.71927,1.19366 0.73649,-0.15054 z m 11.02881,-14.21382 0.94311,-1.33803 0.0392,1.09726 z m -14.81503,21.90806 -1.69359,-0.95181 1.80141,-0.63462 1.35107,-2.40379 1.58557,-0.27154 -0.66552,1.31184 1.66872,1.02968 0.56655,-0.89215 -0.74835,-0.56864 0.89518,0.56489 -0.99671,1.34234 -2.51439,-0.6722 -0.5629,1.03897 0.74855,0.56847 z m 3.71883,-5.6229 -0.62725,-0.72599 0.71632,-1.00589 0.57608,1.02908 z"
           id="path63"
           inkscape:connector-curvature="0"
           style="stroke:#ffffff;stroke-width:1.5;stroke-dasharray:1, 0"
           sodipodi:nodetypes="ccccccccccccccccccccccccccccccccccccccccccccccccccccccccccccccccccccccccccccccccccccccccccccccccccccccccccccccccccccccccccccccccccccccccccccccccccccccccccccccccccccccccccccccccccccccccccccccccccccccccccccccccccccccccccccccccccccccccccccccccccccccccccccccccccccccccccccccccccccccc" />
        <text
           x="197.3111"
           y="354.52042"
           id="text65">Zeeland</text>
        <line
           x1="301.3111"
           y1="379.52042"
           x2="241.3111"
           y2="354.52042"
           id="line67" />
      </a>
      <a
         id="s12"
         xlink:href="https://nl.wikipedia.org/wiki/Zuid-Holland"
		 target="_blank" 
		 data-rel="external">
        <path
           style="stroke:#ffffff;stroke-width:1.5;stroke-dasharray:1, 0"
           inkscape:connector-curvature="0"
           d="m 331.20567,289.93593 24.65784,-30.48501 12.27258,-23.68453 7.16437,3.05936 2.07055,-1.51303 2.84513,0.85899 -2.32154,5.53015 -2.06335,1.95781 -0.52704,5.65224 -1.32544,1.20444 0.67002,1.29603 6.35167,0.69863 8.60128,-3.21234 2.08787,0.27615 -0.12201,2.67338 1.20698,1.62067 5.17631,-3.61192 1.65387,1.76615 0.0238,2.67151 9.1279,6.45142 -1.77597,1.05154 0.0222,2.81624 -5.35486,-0.54817 -3.09138,3.28758 3.43844,2.48777 0.0457,5.32866 0.89295,0.28901 -0.43635,1.03922 4.44864,-0.33331 -4.57287,3.14475 -3.07466,4.46357 0.45631,1.32585 4.44103,-0.6293 1.05427,2.06011 -3.99263,0.92063 4.32916,5.27004 1.82613,5.01366 3.98676,-1.06351 2.63953,-3.41365 2.81757,0.71884 2.20349,-2.67194 3.72228,1.30196 1.01506,-1.47831 1.48159,0.13917 1.04738,2.06117 -1.02823,1.48182 9.63417,3.34735 0.004,0.88549 -3.66655,6.79853 -2.21737,-0.13661 -1.02408,2.0683 -2.50901,0.45531 -0.43675,1.18083 0.89234,1.17358 -6.795,-0.25465 0.60719,2.64718 3.25128,0.56947 -0.56909,3.6828 -10.04497,-1.55291 -8.22543,4.77295 -6.63247,0.49926 -3.22179,2.38361 -2.16752,4.43097 -4.09154,3.27387 -6.30729,2.27256 -0.16396,-1.46675 -3.64648,2.97917 -6.01423,1.68853 -11.82013,-3.21731 -16.76094,-7.38123 -1.80535,-2.17525 1.90162,-0.91382 1.5737,-2.96746 1.47005,-0.31825 -1.47491,0.0243 -2.45571,3.12959 -4.03327,-3.02094 -1.91996,-0.11357 -2.70702,-2.89549 -2.79518,0.49198 -5.53088,-3.72482 -2.04926,0.92252 1.46731,-2.45672 -3.88441,-6.01763 2.42085,-4.6531 -1.57644,-1.18706 -4.05323,1.23273 -0.9571,-1.27809 1.2386,-1.78006 1.8014,0 0.11248,-1.87239 -1.8014,1.36995 1.5199,-2.23751 -0.61915,-2.28391 0.73183,-3.01577 1.91419,-0.59431 5.14216,2.33816 z m 13.44146,44.23052 6.99048,4.44047 6.90566,-0.83705 0.62037,2.19226 -5.90287,-1.08624 2.23997,2.16775 -1.13493,2.80471 -7.75332,2.61336 -4.42199,-0.6604 -1.65923,-2.46539 -5.62683,-2.10333 -0.86955,0.74874 0.57274,-0.89029 -1.06126,-1.74264 -10.34411,-2.1563 -1.87487,-5.54499 -0.72474,0.6016 -0.62401,-1.75094 0.0578,-4.55803 -3.1694,-3.61411 -9.84808,1.67555 0.182,1.61408 -2.35499,0.19754 -1.12105,2.67115 1.65893,1.72768 -0.42905,0.59763 -3.13566,-1.17664 1.46376,-0.77324 1.18226,-2.54719 -1.12592,-4.36904 1.18226,-2.13975 13.68,-4.73704 3.26516,3.50748 1.21651,-0.63092 -0.26083,1.77114 1.17161,-0.46394 6.72519,4.58199 7.42804,3.10275 z m 7.66789,0.61285 -3.54281,-0.53235 -4.47265,-3.30674 2.20258,-0.47714 8.00361,3.10782 z"
           id="path70" />
        <text
           x="340.22247"
           y="314.19452"
           id="text72">Zuid-Holland</text>
      </a>
    </g>
  </g>
</svg>
