<?xml version="1.0" encoding="utf-8"?>
<!-- Generator: Adobe Illustrator 19.2.1, SVG Export Plug-In . SVG Version: 6.00 Build 0)  -->
<svg version="1.1" id="Layer_1" xmlns="http://www.w3.org/2000/svg" xmlns:xlink="http://www.w3.org/1999/xlink" x="0px" y="0px"
	 viewBox="0 0 1024 180" style="enable-background:new 0 0 1024 180;" xml:space="preserve">
<style type="text/css">
	.st0{fill:#E8DE5E;}
	.st1{fill:#DCD24B;}
	.st2{fill:#E8DD4F;}
	.st3{fill:#674D41;}
	.st4{fill:#70564C;}
	.st5{fill:#89695D;}
	.st6{fill:#936914;}
	.st7{fill:#815D10;}
	.st8{fill:#39BFEF;}
	.st9{fill:#2AA6DF;}
	.st10{fill:#E6E6E6;}
</style>
<g>
	<path id="XMLID_31_" class="st0" d="M584.9,137.6c-45.3-40.5-95.2-65.8-215.2-64c-130.4,1.9-198.9,58.3-203.5,62.4L584.9,137.6z"/>
	<path class="st1" d="M355.3,136.7l229.6,0.9c-35-31.3-72.8-53.5-143.7-61.2C396.5,88.7,364,110.7,355.3,136.7z"/>
</g>
<g>
	<path id="XMLID_29_" class="st2" d="M765.7,131.6C716.6,97.1,627.6,76.2,532.6,77c-141.2,1.1-215.4,49.7-220.4,53.2L765.7,131.6z"
		/>
	<path class="st1" d="M509.7,131.2l260,0.8C729.4,103.7,662.2,84.6,587,79C550.9,91.2,523.3,109.6,509.7,131.2z"/>
</g>
<g>
	<g id="XMLID_47_">
		<polygon id="XMLID_50_" class="st3" points="272.9,156.7 302.6,94.2 323.1,82.9 353.1,86.1 357.8,161 		"/>
		<polygon id="XMLID_49_" class="st4" points="357.8,161 272.9,156.7 310.4,120.9 327.7,94.2 353.1,86.1 		"/>
		<polygon id="XMLID_48_" class="st5" points="272.9,156.7 302.6,94.2 327.7,94.2 300.3,156.9 		"/>
	</g>
	<g>
		<g id="XMLID_46_">
			<polygon id="XMLID_43_" class="st3" points="324.1,122.5 356.6,82.6 392.5,87.4 396.5,124.7 			"/>
			<polygon id="XMLID_45_" class="st4" points="396.5,124.7 324.1,122.5 356.1,104.7 371.4,95.6 393.4,96.5 			"/>
			<polygon id="XMLID_44_" class="st5" points="324.1,122.5 356.6,82.6 371.4,95.6 347.4,122.6 			"/>
		</g>
		<g id="XMLID_51_">
			<polygon id="XMLID_54_" class="st3" points="320.1,136.4 332.3,99.4 352.8,92.8 373.4,98.3 387.6,138.4 			"/>
			<polygon id="XMLID_53_" class="st4" points="387.6,138.4 302.7,135.9 340.2,115 357.8,103.7 373.4,98.3 			"/>
			<polygon id="XMLID_52_" class="st5" points="315.4,137.4 332.3,99.4 357.8,103.7 361.2,137.4 			"/>
		</g>
		<g id="XMLID_74_">
			<polygon id="XMLID_77_" class="st3" points="427.2,171.1 439.4,112.9 459.9,102.5 480.5,111 494.7,174.3 			"/>
			<polygon id="XMLID_76_" class="st4" points="500.3,156.8 409.8,170.2 447.3,137.4 464.9,119.5 480.5,111 			"/>
			<polygon id="XMLID_75_" class="st5" points="422.5,172.5 439.4,112.9 464.9,119.5 468.2,172.5 			"/>
		</g>
		<g id="XMLID_62_">
			<polygon id="XMLID_65_" class="st3" points="371,142.3 383.2,105.3 403.7,98.7 424.3,104.2 438.4,144.3 			"/>
			<polygon id="XMLID_64_" class="st4" points="438.4,144.3 353.6,141.8 391.1,120.9 408.7,109.6 424.3,104.2 			"/>
			<polygon id="XMLID_63_" class="st5" points="366.2,143.3 383.2,105.3 408.7,109.6 412,143.3 			"/>
		</g>
		<g id="XMLID_55_">
			<polygon id="XMLID_58_" class="st3" points="269.2,162.1 308.1,107.3 323.2,101.6 335.5,104.1 339,148.9 			"/>
			<polygon id="XMLID_57_" class="st4" points="339,148.9 269.2,162.1 306.7,130.7 323.9,107.3 335.5,104.1 			"/>
			<polygon id="XMLID_56_" class="st5" points="269.2,162.1 308.1,107.3 323.9,107.3 296.6,162.2 			"/>
		</g>
		<g id="XMLID_70_">
			<polygon id="XMLID_73_" class="st3" points="389.9,163.1 422.4,93.9 458.3,102.2 462.3,166.7 			"/>
			<polygon id="XMLID_72_" class="st4" points="462.3,166.7 389.9,163.1 421.9,132 437.2,116.4 459.2,118 			"/>
			<polygon id="XMLID_71_" class="st5" points="389.9,163.1 422.4,93.9 437.2,116.4 413.2,163.2 			"/>
		</g>
		<g id="XMLID_66_">
			<polygon id="XMLID_69_" class="st3" points="322.9,163.1 352.5,126.6 373,120 403,122 407.8,165.6 			"/>
			<polygon id="XMLID_68_" class="st4" points="407.8,165.6 322.9,163.1 360.4,142.2 377.6,126.6 403,122 			"/>
			<polygon id="XMLID_67_" class="st5" points="322.9,163.1 352.5,126.6 377.6,126.6 350.2,163.2 			"/>
		</g>
	</g>
</g>
<g>
	<g>
		<rect x="649.5" y="77" class="st6" width="15" height="60.5"/>
		<rect x="658.2" y="77" class="st7" width="6.4" height="60.5"/>
	</g>
	<g>
		<rect x="673.8" y="79.5" class="st6" width="15" height="60.5"/>
		<rect x="682.4" y="79.5" class="st7" width="6.4" height="60.5"/>
	</g>
	<g>
		<rect x="697" y="82.5" class="st6" width="15" height="60.5"/>
		<rect x="705.6" y="82.5" class="st7" width="6.4" height="60.5"/>
	</g>
	<g>
		<rect x="719.2" y="84.7" class="st6" width="15" height="60.5"/>
		<rect x="727.8" y="84.7" class="st7" width="6.4" height="60.5"/>
	</g>
	<g>
		<rect x="742.2" y="86.3" class="st6" width="15" height="60.5"/>
		<rect x="750.8" y="86.3" class="st7" width="6.4" height="60.5"/>
	</g>
	<g>
		<rect x="765.7" y="89.8" class="st6" width="15" height="60.5"/>
		<rect x="774.3" y="89.8" class="st7" width="6.4" height="60.5"/>
	</g>
	<g>
		<rect x="789.6" y="92" class="st6" width="15" height="60.5"/>
		<rect x="798.2" y="92" class="st7" width="6.4" height="60.5"/>
	</g>
	<g>
		<rect x="813.9" y="93.8" class="st6" width="15" height="60.5"/>
		<rect x="822.5" y="93.8" class="st7" width="6.4" height="60.5"/>
	</g>
	<g>
		<rect x="837" y="95.4" class="st6" width="15" height="60.5"/>
		<rect x="845.6" y="95.4" class="st7" width="6.4" height="60.5"/>
	</g>
	<g>
		<rect x="862.1" y="99.4" class="st6" width="15" height="60.5"/>
		<rect x="870.7" y="99.4" class="st7" width="6.4" height="60.5"/>
	</g>
</g>
<g id="XMLID_30_">
	<polygon id="XMLID_61_" class="st3" points="403.2,156.3 442.1,119.9 457.2,116.1 469.5,117.8 473,147.6 	"/>
	<polygon id="XMLID_60_" class="st4" points="473,147.6 403.2,156.3 440.7,135.4 457.9,119.9 469.5,117.8 	"/>
	<polygon id="XMLID_59_" class="st5" points="403.2,156.3 442.1,119.9 457.9,119.9 430.6,156.5 	"/>
</g>
<path class="st8" d="M0,121h1024v58.1H0V121z M42.7,121c-10,0.1-21.3-12.1-21.3-12.1S10,121,0,121h21.3H42.7z M85.4,121
	c-10,0.1-21.3-12.1-21.3-12.1S52.8,121,42.8,121h21.3H85.4z M149.3,121h21.3c-10.1,0.1-21.3-12.1-21.3-12.1s-11.2,12-21.2,12.1h0.2
	H149.3z M128,121L128,121c-9.9-0.1-21.1-12.1-21.1-12.1S95.6,121,85.5,121h21.3H128z M213.3,121c-10,0.1-21.3-12.1-21.3-12.1
	S180.7,121,170.7,121H192H213.3z M256.1,121c-10,0.1-21.3-12.1-21.3-12.1S223.5,121,213.4,121h21.3H256.1z M320,121h21.3
	c-10.1,0.1-21.3-12.1-21.3-12.1s-11.2,12-21.2,12.1h0.2H320z M298.7,121L298.7,121c-9.9-0.1-21.1-12.1-21.1-12.1
	S266.2,121,256.2,121h21.3H298.7z M384,121c-10,0.1-21.3-12.1-21.3-12.1S351.4,121,341.3,121h21.3H384z M426.8,121
	c-10,0.1-21.3-12.1-21.3-12.1S394.1,121,384.1,121h21.3H426.8z M490.7,121H512c-10.1,0.1-21.3-12.1-21.3-12.1s-11.2,12-21.2,12.1
	h0.2H490.7z M469.3,121L469.3,121c-9.9-0.1-21.1-12.1-21.1-12.1S436.9,121,426.9,121h21.3H469.3z M554.7,121
	c-10,0.1-21.3-12.1-21.3-12.1S522,121,512,121h21.3H554.7z M597.4,121c-10,0.1-21.3-12.1-21.3-12.1S564.8,121,554.8,121h21.3H597.4z
	 M661.3,121h21.3c-10.1,0.1-21.3-12.1-21.3-12.1s-11.2,12-21.2,12.1h0.2H661.3z M640,121L640,121c-9.9-0.1-21.1-12.1-21.1-12.1
	S607.6,121,597.6,121h21.3H640z M725.3,121c-10,0.1-21.3-12.1-21.3-12.1S692.7,121,682.7,121H704H725.3z M768.1,121
	c-10,0.1-21.3-12.1-21.3-12.1S735.5,121,725.5,121h21.3H768.1z M832,121h21.3c-10.1,0.1-21.3-12.1-21.3-12.1s-11.2,12-21.2,12.1h0.2
	H832z M810.7,121L810.7,121c-9.9-0.1-21.1-12.1-21.1-12.1S778.3,121,768.3,121h21.3H810.7z M896,121c-10,0.1-21.3-12.1-21.3-12.1
	S863.4,121,853.4,121h21.3H896z M938.8,121c-10,0.1-21.3-12.1-21.3-12.1S906.2,121,896.2,121h21.3H938.8z M1002.7,121h21.3
	c-10.1,0.1-21.3-12.1-21.3-12.1s-11.2,12-21.2,12.1h0.2H1002.7z M981.3,121L981.3,121c-9.9-0.1-21.1-12.1-21.1-12.1
	S948.9,121,938.9,121h21.3H981.3z"/>
<rect id="XMLID_32_" y="143" class="st9" width="1024" height="37"/>
<path id="XMLID_37_" class="st10" d="M-309.3-404L-309.3-404L-309.3-404z"/>
</svg>
