<?xml version="1.0" encoding="utf-8"?>
<!-- Generator: Adobe Illustrator 19.0.0, SVG Export Plug-In . SVG Version: 6.00 Build 0)  -->
<svg version="1.2" baseProfile="tiny" id="Layer_1" xmlns="http://www.w3.org/2000/svg" xmlns:xlink="http://www.w3.org/1999/xlink"
	 x="0px" y="0px" viewBox="0 290.5 1024 444.5" xml:space="preserve">
<g id="XMLID_90_">
	<g id="XMLID_99_">
		<path id="XMLID_100_" fill="#683D1F" d="M236.4,639.4v-53.3c0-3.6-2.9-6.4-6.4-6.4c-3.6,0-6.4,2.9-6.4,6.4v53.3H236.4z"/>
	</g>
	<g id="XMLID_97_">
		<path id="XMLID_98_" fill="#683D1F" d="M229.9,610.9h-10.3c-9.4,0-17.1-7.7-17.1-17.1v-17.9c0-1.8,1.4-3.2,3.2-3.2
			s3.2,1.4,3.2,3.2v17.9c0,5.9,4.8,10.6,10.6,10.6h10.3c1.8,0,3.2,1.4,3.2,3.2C233,609.4,231.7,610.9,229.9,610.9z"/>
	</g>
	<g id="XMLID_95_">
		<path id="XMLID_96_" fill="#683D1F" d="M239.5,601.1h-10.3c-1.8,0-3.2-1.4-3.2-3.2c0-1.8,1.4-3.2,3.2-3.2h10.3
			c5.9,0,10.6-4.8,10.6-10.6v-11.6c0-1.8,1.4-3.2,3.2-3.2s3.2,1.4,3.2,3.2V584C256.5,593.4,248.9,601.1,239.5,601.1z"/>
	</g>
	<g id="XMLID_93_">
		<path id="XMLID_94_" fill="#5BB246" d="M206.1,509c-16.2,0-29.3,13.1-29.3,29.3v17.6c0,16.2,13.1,29.3,29.3,29.3h23.7V509H206.1
			L206.1,509z"/>
	</g>
	<g id="XMLID_91_">
		<path id="XMLID_92_" fill="#2A9C43" d="M250.6,509h-20.9v76.2h20.9c16.2,0,29.3-13.1,29.3-29.3v-17.6
			C279.9,522.1,266.8,509,250.6,509z"/>
	</g>
</g>
<path id="XMLID_29_" fill="#2A9C43" d="M675.2,686.5c-35.3-39.8-99.4-63.9-167.7-63c-101.6,1.3-155,57.4-158.6,61.4L675.2,686.5z"/>
<path id="XMLID_31_" fill="#2A9C43" d="M429.5,694.4c-35.3-39.8-74.2-64.7-167.7-63c-101.6,1.9-155,57.4-158.6,61.4L429.5,694.4z"/>
<g id="XMLID_40_">
	<path id="XMLID_39_" fill="#ECA224" d="M382.9,440.3L382.9,440.3c-27.2,0-49.2-22-49.2-49.2l0,0c0-27.2,22-49.2,49.2-49.2l0,0
		c27.2,0,49.2,22,49.2,49.2l0,0C432.1,418.3,410.1,440.3,382.9,440.3z"/>
	<path id="XMLID_38_" fill="#E8CB00" d="M382.9,426.5L382.9,426.5c-19.6,0-35.4-15.9-35.4-35.4l0,0c0-19.6,15.9-35.4,35.4-35.4l0,0
		c19.6,0,35.4,15.9,35.4,35.4l0,0C418.4,410.7,402.5,426.5,382.9,426.5z"/>
</g>
<g id="XMLID_46_">
	<polygon id="XMLID_43_" fill="#674D41" points="628.4,676.5 660.9,636.6 696.8,641.4 700.8,678.7 	"/>
	<polygon id="XMLID_45_" fill="#70564C" points="700.8,678.7 628.4,676.5 660.4,658.7 675.7,649.6 697.7,650.5 	"/>
	<polygon id="XMLID_44_" fill="#89695D" points="628.4,676.5 660.9,636.6 675.7,649.6 651.7,676.6 	"/>
</g>
<g id="XMLID_47_">
	<polygon id="XMLID_50_" fill="#674D41" points="577.2,680 606.9,643.5 627.4,636.9 657.4,638.8 662.1,682.5 	"/>
	<polygon id="XMLID_49_" fill="#70564C" points="662.1,682.5 577.2,680 614.7,659.1 632,643.5 657.4,638.8 	"/>
	<polygon id="XMLID_48_" fill="#89695D" points="577.2,680 606.9,643.5 632,643.5 604.6,680.1 	"/>
</g>
<g id="XMLID_51_">
	<polygon id="XMLID_54_" fill="#674D41" points="624.4,690.4 636.6,653.4 657.1,646.8 677.7,652.3 691.9,692.4 	"/>
	<polygon id="XMLID_53_" fill="#70564C" points="691.9,692.4 607,689.9 644.5,669 662.1,657.7 677.7,652.3 	"/>
	<polygon id="XMLID_52_" fill="#89695D" points="619.7,691.4 636.6,653.4 662.1,657.7 665.5,691.4 	"/>
</g>
<g id="XMLID_74_">
	<polygon id="XMLID_77_" fill="#674D41" points="742.9,685.5 755.1,648.5 775.6,641.9 796.2,647.3 810.4,687.5 	"/>
	<polygon id="XMLID_76_" fill="#70564C" points="816,676.4 725.5,684.9 763,664.1 780.6,652.7 796.2,647.3 	"/>
	<polygon id="XMLID_75_" fill="#89695D" points="738.2,686.4 755.1,648.5 780.6,652.7 783.9,686.4 	"/>
</g>
<g id="XMLID_62_">
	<polygon id="XMLID_65_" fill="#674D41" points="692.1,675.4 704.3,638.4 724.8,631.8 745.4,637.3 759.5,677.4 	"/>
	<polygon id="XMLID_64_" fill="#70564C" points="759.5,677.4 674.7,674.9 712.2,654 729.8,642.7 745.4,637.3 	"/>
	<polygon id="XMLID_63_" fill="#89695D" points="687.3,676.4 704.3,638.4 729.8,642.7 733.1,676.4 	"/>
</g>
<g id="XMLID_55_">
	<polygon id="XMLID_58_" fill="#674D41" points="570.7,695.9 609.6,659.4 624.7,655.6 637,657.3 640.5,687.1 	"/>
	<polygon id="XMLID_57_" fill="#70564C" points="640.5,687.1 570.7,695.9 608.2,675 625.4,659.4 637,657.3 	"/>
	<polygon id="XMLID_56_" fill="#89695D" points="570.7,695.9 609.6,659.4 625.4,659.4 598.1,696 	"/>
</g>
<g id="XMLID_70_">
	<polygon id="XMLID_73_" fill="#674D41" points="695.9,687.8 728.4,647.9 764.3,652.7 768.3,689.9 	"/>
	<polygon id="XMLID_72_" fill="#70564C" points="768.3,689.9 695.9,687.8 727.9,669.9 743.2,660.9 765.2,661.8 	"/>
	<polygon id="XMLID_71_" fill="#89695D" points="695.9,687.8 728.4,647.9 743.2,660.9 719.2,687.9 	"/>
</g>
<g id="XMLID_66_">
	<polygon id="XMLID_69_" fill="#674D41" points="642.3,696.2 671.9,659.7 692.4,653.1 722.4,655.1 727.2,698.7 	"/>
	<polygon id="XMLID_68_" fill="#70564C" points="727.2,698.7 642.3,696.2 679.8,675.3 697,659.7 722.4,655.1 	"/>
	<polygon id="XMLID_67_" fill="#89695D" points="642.3,696.2 671.9,659.7 697,659.7 669.6,696.3 	"/>
</g>
<g id="XMLID_86_">
	<path id="XMLID_79_" fill="#A9A9A9" d="M900.4,639.3h-1.1c-1.5,0-2.6,1.2-2.6,2.6v21.2c0,1.5,1.2,2.6,2.6,2.6h1.1
		c1.5,0,2.6-1.2,2.6-2.6v-21.2C903.1,640.5,901.9,639.3,900.4,639.3z"/>
	<polygon id="XMLID_78_" fill="#7A7A7A" points="889.3,668 891.9,662.2 907.8,662.2 911,668 	"/>
	<path id="XMLID_85_" fill="#A9A9A9" d="M847.8,686.1c0,0,3.6-19,8.9-19c22.2,0,47.7-0.8,70.1,0c6,0.2,14.9,19,14.9,19H847.8z"/>
	<circle id="XMLID_84_" fill="#6AC2BB" cx="886.1" cy="642.7" r="3.3"/>
	<path id="XMLID_80_" fill="#A9A9A9" d="M888.4,639.3h12c1.5,0,2.6,1.2,2.6,2.6v1.1c0,1.5-1.2,2.6-2.6,2.6h-12
		c-1.5,0-2.6-1.2-2.6-2.6v-1.1C885.8,640.5,887,639.3,888.4,639.3z"/>
	<polygon id="XMLID_81_" fill="#7A7A7A" points="885,647.8 890.5,646.3 890.5,638.7 885,637.3 	"/>
	<rect id="XMLID_82_" x="896.2" y="653.2" fill="#7A7A7A" width="7.2" height="1.3"/>
	<rect id="XMLID_83_" x="896.2" y="655.1" fill="#7A7A7A" width="7.2" height="1.3"/>
</g>
<g id="XMLID_104_">
	<path id="XMLID_105_" fill="#5BB246" d="M176.9,679.1c0,0.3,0,0.6,0.1,1h44.3c0-0.1,0-0.3,0-0.4c0-2.1-1.7-3.9-3.8-4
		c-0.7-2.1-2.2-3.9-4.2-4.8c1.2-1.1,2-2.7,2-4.5c0-3.3-2.6-6-5.9-6.1c-2.4-3.7-6.6-6.1-11.3-6.1c-6.4,0-11.7,4.4-13.1,10.3
		c-3.6,0-6.5,2.9-6.5,6.5c0,1.1,0.3,2.2,0.8,3.1C177.9,675.3,176.9,677.1,176.9,679.1z"/>
</g>
<g id="XMLID_30_">
	<polygon id="XMLID_61_" fill="#674D41" points="714.3,698.7 753.2,662.3 768.3,658.5 780.6,660.2 784.1,690 	"/>
	<polygon id="XMLID_60_" fill="#70564C" points="784.1,690 714.3,698.7 751.8,677.8 769,662.3 780.6,660.2 	"/>
	<polygon id="XMLID_59_" fill="#89695D" points="714.3,698.7 753.2,662.3 769,662.3 741.7,698.9 	"/>
</g>
<g id="XMLID_107_">
	<g>
		<rect x="32" y="675" fill="#39BFEF" width="960" height="59"/>
		<path fill="#39BFEF" d="M72,675.9c-9.4,0.1-20-12.1-20-12.1s-10.6,12.1-20,12.1h20H72z"/>
		<path fill="#39BFEF" d="M112.1,675.9c-9.4,0.1-20-12.1-20-12.1s-10.6,12.1-20,12.1h20H112.1z"/>
		<path fill="#39BFEF" d="M172,675.9h20c-9.5,0.1-20-12.1-20-12.1s-10.5,12-19.9,12.1h0.2H172z"/>
		<path fill="#39BFEF" d="M152,675.9h0.1c-9.4-0.1-19.9-12.1-19.9-12.1s-10.6,12.1-20,12.1h20H152z"/>
		<path fill="#39BFEF" d="M232,675.9c-9.4,0.1-20-12.1-20-12.1s-10.6,12.1-20,12.1h20H232z"/>
		<path fill="#39BFEF" d="M272.1,675.9c-9.4,0.1-20-12.1-20-12.1s-10.6,12.1-20,12.1h20H272.1z"/>
		<path fill="#39BFEF" d="M332,675.9h20c-9.5,0.1-20-12.1-20-12.1s-10.5,12-19.9,12.1h0.2H332z"/>
		<path fill="#39BFEF" d="M312,675.9h0.1c-9.4-0.1-19.9-12.1-19.9-12.1s-10.6,12.1-20,12.1h20H312z"/>
		<path fill="#39BFEF" d="M392,675.9c-9.4,0.1-20-12.1-20-12.1s-10.6,12.1-20,12.1h20H392z"/>
		<path fill="#39BFEF" d="M432.1,675.9c-9.4,0.1-20-12.1-20-12.1s-10.6,12.1-20,12.1h20H432.1z"/>
		<path fill="#39BFEF" d="M492,675.9h20c-9.5,0.1-20-12.1-20-12.1s-10.5,12-19.9,12.1h0.2H492z"/>
		<path fill="#39BFEF" d="M472,675.9h0.1c-9.4-0.1-19.9-12.1-19.9-12.1s-10.6,12.1-20,12.1h20H472z"/>
		<path fill="#39BFEF" d="M552,675.9c-9.4,0.1-20-12.1-20-12.1s-10.6,12.1-20,12.1h20H552z"/>
		<path fill="#39BFEF" d="M592.1,675.9c-9.4,0.1-20-12.1-20-12.1s-10.6,12.1-20,12.1h20H592.1z"/>
		<path fill="#39BFEF" d="M652,675.9h20c-9.5,0.1-20-12.1-20-12.1s-10.5,12-19.9,12.1h0.2H652z"/>
		<path fill="#39BFEF" d="M632,675.9h0.1c-9.4-0.1-19.9-12.1-19.9-12.1s-10.6,12.1-20,12.1h20H632z"/>
		<path fill="#39BFEF" d="M712,675.9c-9.4,0.1-20-12.1-20-12.1s-10.6,12.1-20,12.1h20H712z"/>
		<path fill="#39BFEF" d="M752.1,675.9c-9.4,0.1-20-12.1-20-12.1s-10.6,12.1-20,12.1h20H752.1z"/>
		<path fill="#39BFEF" d="M812,675.9h20c-9.5,0.1-20-12.1-20-12.1s-10.5,12-19.9,12.1h0.2H812z"/>
		<path fill="#39BFEF" d="M792,675.9h0.1c-9.4-0.1-19.9-12.1-19.9-12.1s-10.6,12.1-20,12.1h20H792z"/>
		<path fill="#39BFEF" d="M872,675.9c-9.4,0.1-20-12.1-20-12.1s-10.6,12.1-20,12.1h20H872z"/>
		<path fill="#39BFEF" d="M912.1,675.9c-9.4,0.1-20-12.1-20-12.1s-10.6,12.1-20,12.1h20H912.1z"/>
		<path fill="#39BFEF" d="M972,675.9h20c-9.5,0.1-20-12.1-20-12.1s-10.5,12-19.9,12.1h0.2H972z"/>
		<path fill="#39BFEF" d="M952,675.9h0.1c-9.4-0.1-19.9-12.1-19.9-12.1s-10.6,12.1-20,12.1h20H952z"/>
	</g>
	<rect id="XMLID_32_" x="32" y="697.9" fill="#2AA6DF" width="960" height="37"/>
</g>
<g id="XMLID_109_">
	<g id="XMLID_137_">
		<g id="XMLID_138_">
			<path id="XMLID_139_" fill="#FAFAFA" d="M373.9,315H185.1c-13.6,0-24.6,11-24.6,24.6v18.7c0,13.6-11,24.6-24.6,24.6h-25.4
				c-13.6,0-24.6,11-24.6,24.6l0,0c0,13.6,11,24.6,24.6,24.6h177.2c13.6,0,24.6-11,24.6-24.6l0,0c0-13.6,11-24.6,24.6-24.6h37
				c13.6,0,24.6-11,24.6-24.6v-18.7C398.5,326,387.4,315,373.9,315z"/>
		</g>
	</g>
</g>
<polygon id="XMLID_37_" fill="#E6E6E6" points="-309.3,-139.2 -309.3,-139.2 -309.3,-139.2 "/>
<g id="XMLID_33_">
	<path id="XMLID_34_" fill="#FAFAFA" d="M913.9,410.8v-14.4c0-5.5-4.4-9.9-9.9-9.9H752.2c-5.5,0-9.9,4.4-9.9,9.9v32.3
		c0,5.5,4.4,9.9,9.9,9.9h45.9c5.5,0,9.9,4.4,9.9,9.9l0,0c0,5.5,4.4,9.9,9.9,9.9h116.8c5.5,0,9.9-4.4,9.9-9.9v-17.9
		c0-5.5-4.4-9.9-9.9-9.9h-11C918.3,420.8,913.9,416.3,913.9,410.8z"/>
	<path id="XMLID_42_" fill="#FAFAFA" d="M700.5,463h15.2c10.4,0,18.9-8.4,18.9-18.9l0,0c0-10.4-8.4-18.9-18.9-18.9h-15.2
		c-10.4,0-18.9,8.4-18.9,18.9l0,0C681.7,454.5,690.1,463,700.5,463z"/>
</g>
<g id="XMLID_88_">
	<path id="XMLID_89_" fill="#5BB246" d="M252.3,652.3h42.2c1.3-1.3,0.4-3.9-1.3-4.8c-1.8-0.9-4-0.5-5.9-0.1c1.9-1.6,4-3.9,3.2-6.3
		c-0.7-1.9-3-2.7-5.1-3c-3.7-0.5-7.5-0.2-11.1,0.8c1.9-0.5,3.8-1.4,5-2.9s1.8-3.7,0.9-5.5c-1.4-3-5.6-3.4-8.9-2.7
		c-4.3,0.8-9,3.3-10.3,7.3c-0.1-2.4-2.3-4.8-4.8-5.1c-3.2-0.4-6.2,1.6-8.1,4.3c-2.4,3.4-3.2,8-1.7,11.8
		C247.4,648.9,249.6,651.1,252.3,652.3z"/>
</g>
<g id="XMLID_108_">
	<path id="XMLID_103_" fill="#5BB246" d="M455.4,659.9c1.2-1.9,1.8-3.9,1.8-6.1c0-8-9-14.5-20-14.5c-9.2,0-16.9,4.5-19.2,10.6
		c-0.3,0-0.5,0-0.8,0c-6.5,0-11.8,3.8-11.8,8.5c0,0.5,0.1,1.1,0.2,1.6L455.4,659.9L455.4,659.9z"/>
</g>
<g id="XMLID_101_">
	<path id="XMLID_102_" fill="#5BB246" d="M538.7,655.9h42.2c1.3-1.3,0.4-3.9-1.3-4.8c-1.8-0.9-4-0.5-5.9-0.1c1.9-1.6,4-3.9,3.2-6.3
		c-0.7-1.9-3-2.7-5.1-3c-3.7-0.5-7.5-0.2-11.1,0.8c1.9-0.5,3.8-1.4,5-2.9s1.8-3.7,0.9-5.5c-1.4-3-5.6-3.4-8.9-2.7
		c-4.3,0.8-9,3.3-10.3,7.3c-0.1-2.4-2.3-4.8-4.8-5.1c-3.2-0.4-6.2,1.6-8.1,4.3c-2.4,3.4-3.2,8-1.7,11.8
		C533.8,652.4,536,654.7,538.7,655.9z"/>
</g>
<g id="XMLID_106_">
	<path id="XMLID_87_" fill="#5BB246" d="M541.1,662.6c0.3-0.9,0.4-1.8,0.4-2.8c0-5.1-3.9-9.2-8.9-9.6c-1.7-6.4-7.4-11.1-14.3-11.1
		c-8.2,0-14.8,6.6-14.8,14.8c0,0.8,0.1,1.6,0.2,2.3c-2.3,0.5-4.1,2.5-4.1,5c0,0.4,0.1,0.9,0.2,1.3L541.1,662.6L541.1,662.6z"/>
</g>
</svg>
