<?xml version="1.0" encoding="UTF-8" standalone="no"?>
<!-- Created with Inkscape (http://www.inkscape.org/) -->

<svg
   xmlns:dc="http://purl.org/dc/elements/1.1/"
   xmlns:cc="http://creativecommons.org/ns#"
   xmlns:rdf="http://www.w3.org/1999/02/22-rdf-syntax-ns#"
   xmlns:svg="http://www.w3.org/2000/svg"
   xmlns="http://www.w3.org/2000/svg"
   xmlns:sodipodi="http://sodipodi.sourceforge.net/DTD/sodipodi-0.dtd"
   xmlns:inkscape="http://www.inkscape.org/namespaces/inkscape"
   width="1920"
   height="1080"
   viewBox="0 0 1920 1080"
   id="svg2"
   version="1.1"
   inkscape:version="0.91 r13725"
   sodipodi:docname="frontpage.svg">
  <defs
     id="defs4">
    <inkscape:path-effect
       effect="powerstroke"
       id="path-effect3340"
       is_visible="true"
       offset_points="0,0.5"
       sort_points="true"
       interpolator_type="CubicBezierJohan"
       interpolator_beta="0.2"
       start_linecap_type="zerowidth"
       linejoin_type="round"
       miter_limit="4"
       end_linecap_type="zerowidth"
       cusp_linecap_type="round" />
  </defs>
  <sodipodi:namedview
     id="base"
     pagecolor="#ffffff"
     bordercolor="#666666"
     borderopacity="1.0"
     inkscape:pageopacity="0.0"
     inkscape:pageshadow="2"
     inkscape:zoom="0.62"
     inkscape:cx="1189.9961"
     inkscape:cy="485.80645"
     inkscape:document-units="px"
     inkscape:current-layer="layer1"
     showgrid="false"
     units="px"
     inkscape:snap-center="true"
     inkscape:window-width="2464"
     inkscape:window-height="1023"
     inkscape:window-x="899"
     inkscape:window-y="255"
     inkscape:window-maximized="0" />
  <metadata
     id="metadata7">
    <rdf:RDF>
      <cc:Work
         rdf:about="">
        <dc:format>image/svg+xml</dc:format>
        <dc:type
           rdf:resource="http://purl.org/dc/dcmitype/StillImage" />
        <dc:title></dc:title>
      </cc:Work>
    </rdf:RDF>
  </metadata>
  <g
     inkscape:label="Layer 1"
     inkscape:groupmode="layer"
     id="layer1"
     transform="translate(0,27.637839)">
    <rect
       style="fill:#cfe0e4;fill-opacity:1"
       id="rect3348"
       width="1920"
       height="1080"
       x="0"
       y="-27.637833" />
    <path
       style="fill:#6f8a91;fill-opacity:1"
       d="M 316.12903,865.26538 400,813.65248 l 17.74194,-19.35484 20.96774,-9.67742 33.87097,-11.29032 30.64516,-9.67742 50,-11.29033 22.58064,11.29033 37.09678,4.83871 20.96774,9.67742 17.74193,19.35483 25.80646,6.45162 12.90322,29.03226"
       id="path3381"
       inkscape:connector-curvature="0" />
    <path
       style="fill:#93a7ac;fill-opacity:1"
       d="m -51.612903,942.68474 -14.516129,-301.6129 51.612903,-22.58065 37.096774,-6.45161 37.096774,14.51613 30.645162,16.12903 16.129029,20.96774 16.12904,6.45162 25.80645,-3.22581 35.48387,0 32.25806,27.41936 20.96775,6.45161 17.74193,-3.22581 19.35484,-4.83871 17.74193,9.67742 22.58065,9.67742 43.54839,4.83871 11.29032,-19.35484 24.19355,-6.45161 12.90322,6.45161 29.03226,20.96774 69.35484,33.87097 20.96774,16.12903 9.67742,14.51613 32.25807,11.29033 14.51613,25.80645 29.03225,27.41935 22.58065,32.25807 20.96774,19.35483 54.83871,12.90323 12.90323,20.96774 35.48387,33.87097 -816.129036,8.06452 z"
       id="path3375"
       inkscape:connector-curvature="0" />
    <path
       style="fill:#6f8a91;fill-opacity:1;fill-rule:nonzero"
       d="m 940.32259,833.00732 75.80641,-33.87097 37.0968,-17.74193 12.9032,-19.35484 14.5162,-8.06452 9.6774,-3.2258 14.5161,-9.67742 24.1936,-6.45161 16.129,8.06451 c 0,0 9.6774,6.45161 16.129,11.29032 6.4516,4.83871 38.7097,30.64517 38.7097,30.64517 l 20.9678,8.06451 17.7419,1.6129 11.2903,8.06452 11.2903,20.96774"
       id="path4207"
       inkscape:connector-curvature="0" />
    <path
       style="fill:#6f8a91;fill-opacity:1;fill-rule:nonzero"
       d="m 1308.0645,852.36216 25.8065,-33.87097 22.5806,-12.90323 14.5162,-12.90322 19.3548,-20.96774 20.9677,-27.41936 16.1291,0 16.129,-14.51613 9.6774,-14.51613 12.9032,-8.06451 11.2904,-8.06452 9.6774,-9.67742 L 1500,671.717 l 8.0645,-9.67742 14.5162,-9.67742 22.5806,-8.06452 12.9032,-8.06451 12.9033,-9.67742 12.9032,-12.90323 35.4838,-11.29032 14.5162,4.83871 19.3548,9.67742 19.3549,4.83871 14.5161,1.6129 16.129,6.45161 9.6774,9.67742 22.5807,16.12903 24.1935,3.22581 48.3871,3.22581 22.5807,-11.29033 19.3548,-14.51612 22.5807,-3.22581 20.9677,0 12.9032,9.67742 19.3549,22.58064 41.9354,187.09678"
       id="path4209"
       inkscape:connector-curvature="0" />
    <path
       style="fill:#93a7ac;fill-opacity:1"
       d="m 1077.4194,837.84603 53.2258,-46.77419 22.5806,-19.35484 43.5484,-16.12903 19.3548,-11.29033 14.5162,-16.12903 24.1935,-9.67742 40.3226,0 38.7097,8.06452 14.5161,19.35484 29.0323,4.83871 12.9032,6.45161 24.1935,19.35484 20.9678,30.64516 19.3548,19.35484 z"
       id="path3377"
       inkscape:connector-curvature="0" />
    <rect
       style="fill:#87cdde;fill-opacity:1;fill-rule:nonzero"
       id="rect3346"
       width="1920"
       height="250"
       x="0"
       y="802.36218" />
    <path
       style="fill:#87cdde;fill-opacity:1;fill-rule:nonzero"
       d="m 1679.6223,816.87829 -81.5238,-17.74194 -89.2146,0 -104.5966,16.12904 -181.5057,0 -64.6038,-19.35484 -149.2038,0 -122.68109,-6.45161 -74.51821,6.45161 -101.99938,-1.6129 -97.65278,4.8387 -83.06193,9.67741 -75.37103,6.45163 -112.28744,-8.06452 -121.51654,-12.90323 -73.83284,4.83871 -78.44738,6.45162 -69.2182828,4.83871 1925.8064028,30.64516 -50.7601,-43.54839 -119.9783,0 -79.9855,19.35484 z"
       id="path4211"
       inkscape:connector-curvature="0"
       sodipodi:nodetypes="ccccccccccccccccccccccc" />
  </g>
</svg>
