<?xml version="1.0" encoding="utf-8"?>
<!-- Generator: Adobe Illustrator 19.0.0, SVG Export Plug-In . SVG Version: 6.00 Build 0)  -->
<svg version="1.1" id="Layer_1" xmlns="http://www.w3.org/2000/svg" xmlns:xlink="http://www.w3.org/1999/xlink" x="0px" y="0px"
	 viewBox="448 -158.5 1024 444.5" style="enable-background:new 448 -158.5 1024 444.5;" xml:space="preserve">
<style type="text/css">
	.st0{fill:#E8DE5E;}
	.st1{fill:#DCD24B;}
	.st2{fill:#ECA224;}
	.st3{fill:#E8CB00;}
	.st4{fill:#E8DD4F;}
	.st5{fill:#674D41;}
	.st6{fill:#70564C;}
	.st7{fill:#89695D;}
	.st8{fill:#936914;}
	.st9{fill:#815D10;}
	.st10{fill:#39BFEF;}
	.st11{fill:#2AA6DF;}
	.st12{fill:#FAFAFA;}
	.st13{fill:#E6E6E6;}
</style>
<g>
	<path id="XMLID_31_" class="st0" d="M1032.9,243.6c-45.3-40.5-95.2-65.8-215.2-64c-130.4,1.9-198.9,58.3-203.5,62.4L1032.9,243.6z"
		/>
	<path class="st1" d="M803.3,242.7l229.6,0.9c-35-31.3-72.8-53.5-143.7-61.2C844.5,194.7,812,216.7,803.3,242.7z"/>
</g>
<g id="XMLID_40_">
	<path id="XMLID_39_" class="st2" d="M835.9-8.6L835.9-8.6c-27.2,0-49.2-22-49.2-49.2l0,0c0-27.2,22-49.2,49.2-49.2l0,0
		c27.2,0,49.2,22,49.2,49.2l0,0C885.1-30.6,863.1-8.6,835.9-8.6z"/>
	<path id="XMLID_38_" class="st3" d="M835.9-22.4L835.9-22.4c-19.6,0-35.4-15.9-35.4-35.4l0,0c0-19.6,15.9-35.4,35.4-35.4l0,0
		c19.6,0,35.4,15.9,35.4,35.4l0,0C871.4-38.2,855.5-22.4,835.9-22.4z"/>
</g>
<g>
	<path id="XMLID_29_" class="st4" d="M1213.7,237.6c-49.1-34.5-138.1-55.4-233.1-54.6c-141.2,1.1-215.4,49.7-220.4,53.2
		L1213.7,237.6z"/>
	<path class="st1" d="M957.7,237.2l260,0.8c-40.3-28.3-107.5-47.4-182.7-53C998.9,197.2,971.3,215.6,957.7,237.2z"/>
</g>
<g>
	<g id="XMLID_47_">
		<polygon id="XMLID_50_" class="st5" points="720.9,262.7 750.6,200.2 771.1,188.9 801.1,192.1 805.8,267 		"/>
		<polygon id="XMLID_49_" class="st6" points="805.8,267 720.9,262.7 758.4,226.9 775.7,200.2 801.1,192.1 		"/>
		<polygon id="XMLID_48_" class="st7" points="720.9,262.7 750.6,200.2 775.7,200.2 748.3,262.9 		"/>
	</g>
	<g>
		<g id="XMLID_46_">
			<polygon id="XMLID_43_" class="st5" points="772.1,228.5 804.6,188.6 840.5,193.4 844.5,230.7 			"/>
			<polygon id="XMLID_45_" class="st6" points="844.5,230.7 772.1,228.5 804.1,210.7 819.4,201.6 841.4,202.5 			"/>
			<polygon id="XMLID_44_" class="st7" points="772.1,228.5 804.6,188.6 819.4,201.6 795.4,228.6 			"/>
		</g>
		<g id="XMLID_51_">
			<polygon id="XMLID_54_" class="st5" points="768.1,242.4 780.3,205.4 800.8,198.8 821.4,204.3 835.6,244.4 			"/>
			<polygon id="XMLID_53_" class="st6" points="835.6,244.4 750.7,241.9 788.2,221 805.8,209.7 821.4,204.3 			"/>
			<polygon id="XMLID_52_" class="st7" points="763.4,243.4 780.3,205.4 805.8,209.7 809.2,243.4 			"/>
		</g>
		<g id="XMLID_74_">
			<polygon id="XMLID_77_" class="st5" points="875.2,277.1 887.4,218.9 907.9,208.5 928.5,217 942.7,280.3 			"/>
			<polygon id="XMLID_76_" class="st6" points="948.3,262.8 857.8,276.2 895.3,243.4 912.9,225.5 928.5,217 			"/>
			<polygon id="XMLID_75_" class="st7" points="870.5,278.5 887.4,218.9 912.9,225.5 916.2,278.5 			"/>
		</g>
		<g id="XMLID_62_">
			<polygon id="XMLID_65_" class="st5" points="819,248.3 831.2,211.3 851.7,204.7 872.3,210.2 886.4,250.3 			"/>
			<polygon id="XMLID_64_" class="st6" points="886.4,250.3 801.6,247.8 839.1,226.9 856.7,215.6 872.3,210.2 			"/>
			<polygon id="XMLID_63_" class="st7" points="814.2,249.3 831.2,211.3 856.7,215.6 860,249.3 			"/>
		</g>
		<g id="XMLID_55_">
			<polygon id="XMLID_58_" class="st5" points="717.2,268.1 756.1,213.3 771.2,207.6 783.5,210.1 787,254.9 			"/>
			<polygon id="XMLID_57_" class="st6" points="787,254.9 717.2,268.1 754.7,236.7 771.9,213.3 783.5,210.1 			"/>
			<polygon id="XMLID_56_" class="st7" points="717.2,268.1 756.1,213.3 771.9,213.3 744.6,268.2 			"/>
		</g>
		<g id="XMLID_70_">
			<polygon id="XMLID_73_" class="st5" points="837.9,269.1 870.4,199.9 906.3,208.2 910.3,272.7 			"/>
			<polygon id="XMLID_72_" class="st6" points="910.3,272.7 837.9,269.1 869.9,238 885.2,222.4 907.2,224 			"/>
			<polygon id="XMLID_71_" class="st7" points="837.9,269.1 870.4,199.9 885.2,222.4 861.2,269.2 			"/>
		</g>
		<g id="XMLID_66_">
			<polygon id="XMLID_69_" class="st5" points="770.9,269.1 800.5,232.6 821,226 851,228 855.8,271.6 			"/>
			<polygon id="XMLID_68_" class="st6" points="855.8,271.6 770.9,269.1 808.4,248.2 825.6,232.6 851,228 			"/>
			<polygon id="XMLID_67_" class="st7" points="770.9,269.1 800.5,232.6 825.6,232.6 798.2,269.2 			"/>
		</g>
	</g>
</g>
<g>
	<g>
		<rect x="1097.5" y="183" class="st8" width="15" height="60.5"/>
		<rect x="1106.2" y="183" class="st9" width="6.4" height="60.5"/>
	</g>
	<g>
		<rect x="1121.8" y="185.5" class="st8" width="15" height="60.5"/>
		<rect x="1130.4" y="185.5" class="st9" width="6.4" height="60.5"/>
	</g>
	<g>
		<rect x="1145" y="188.5" class="st8" width="15" height="60.5"/>
		<rect x="1153.6" y="188.5" class="st9" width="6.4" height="60.5"/>
	</g>
	<g>
		<rect x="1167.2" y="190.7" class="st8" width="15" height="60.5"/>
		<rect x="1175.8" y="190.7" class="st9" width="6.4" height="60.5"/>
	</g>
	<g>
		<rect x="1190.2" y="192.3" class="st8" width="15" height="60.5"/>
		<rect x="1198.8" y="192.3" class="st9" width="6.4" height="60.5"/>
	</g>
	<g>
		<rect x="1213.7" y="195.8" class="st8" width="15" height="60.5"/>
		<rect x="1222.3" y="195.8" class="st9" width="6.4" height="60.5"/>
	</g>
	<g>
		<rect x="1237.6" y="198" class="st8" width="15" height="60.5"/>
		<rect x="1246.2" y="198" class="st9" width="6.4" height="60.5"/>
	</g>
	<g>
		<rect x="1261.9" y="199.8" class="st8" width="15" height="60.5"/>
		<rect x="1270.5" y="199.8" class="st9" width="6.4" height="60.5"/>
	</g>
	<g>
		<rect x="1285" y="201.4" class="st8" width="15" height="60.5"/>
		<rect x="1293.6" y="201.4" class="st9" width="6.4" height="60.5"/>
	</g>
	<g>
		<rect x="1310.1" y="205.4" class="st8" width="15" height="60.5"/>
		<rect x="1318.7" y="205.4" class="st9" width="6.4" height="60.5"/>
	</g>
</g>
<g id="XMLID_30_">
	<polygon id="XMLID_61_" class="st5" points="851.2,262.3 890.1,225.9 905.2,222.1 917.5,223.8 921,253.6 	"/>
	<polygon id="XMLID_60_" class="st6" points="921,253.6 851.2,262.3 888.7,241.4 905.9,225.9 917.5,223.8 	"/>
	<polygon id="XMLID_59_" class="st7" points="851.2,262.3 890.1,225.9 905.9,225.9 878.6,262.5 	"/>
</g>
<g id="XMLID_107_">
	<g>
		<rect x="448" y="227" class="st10" width="1024" height="58.1"/>
		<path class="st10" d="M490.7,227c-10,0.1-21.3-12.1-21.3-12.1S458,227,448,227h21.3H490.7z"/>
		<path class="st10" d="M533.4,227c-10,0.1-21.3-12.1-21.3-12.1S500.8,227,490.8,227h21.3H533.4z"/>
		<path class="st10" d="M597.3,227h21.3c-10.1,0.1-21.3-12.1-21.3-12.1s-11.2,12-21.2,12.1h0.2H597.3z"/>
		<path class="st10" d="M576,227h0.1c-10-0.1-21.2-12.1-21.2-12.1S543.6,227,533.5,227h21.3H576z"/>
		<path class="st10" d="M661.3,227c-10,0.1-21.3-12.1-21.3-12.1S628.7,227,618.7,227H640H661.3z"/>
		<path class="st10" d="M704.1,227c-10,0.1-21.3-12.1-21.3-12.1S671.5,227,661.4,227h21.3H704.1z"/>
		<path class="st10" d="M768,227h21.3c-10.1,0.1-21.3-12.1-21.3-12.1s-11.2,12-21.2,12.1h0.2H768z"/>
		<path class="st10" d="M746.7,227h0.1c-10-0.1-21.2-12.1-21.2-12.1S714.2,227,704.2,227h21.3H746.7z"/>
		<path class="st10" d="M832,227c-10,0.1-21.3-12.1-21.3-12.1S799.4,227,789.3,227h21.3H832z"/>
		<path class="st10" d="M874.8,227c-10,0.1-21.3-12.1-21.3-12.1S842.1,227,832.1,227h21.3H874.8z"/>
		<path class="st10" d="M938.7,227H960c-10.1,0.1-21.3-12.1-21.3-12.1s-11.2,12-21.2,12.1h0.2H938.7z"/>
		<path class="st10" d="M917.3,227h0.1c-10-0.1-21.2-12.1-21.2-12.1S884.9,227,874.9,227h21.3H917.3z"/>
		<path class="st10" d="M1002.7,227c-10,0.1-21.3-12.1-21.3-12.1S970,227,960,227h21.3H1002.7z"/>
		<path class="st10" d="M1045.4,227c-10,0.1-21.3-12.1-21.3-12.1s-11.3,12.1-21.3,12.1h21.3H1045.4z"/>
		<path class="st10" d="M1109.3,227h21.3c-10.1,0.1-21.3-12.1-21.3-12.1s-11.2,12-21.2,12.1h0.2H1109.3z"/>
		<path class="st10" d="M1088,227L1088,227c-9.9-0.1-21.1-12.1-21.1-12.1s-11.3,12.1-21.3,12.1h21.3H1088z"/>
		<path class="st10" d="M1173.3,227c-10,0.1-21.3-12.1-21.3-12.1s-11.3,12.1-21.3,12.1h21.3H1173.3z"/>
		<path class="st10" d="M1216.1,227c-10,0.1-21.3-12.1-21.3-12.1s-11.3,12.1-21.3,12.1h21.3H1216.1z"/>
		<path class="st10" d="M1280,227h21.3c-10.1,0.1-21.3-12.1-21.3-12.1s-11.2,12-21.2,12.1h0.2H1280z"/>
		<path class="st10" d="M1258.7,227L1258.7,227c-9.9-0.1-21.1-12.1-21.1-12.1s-11.3,12.1-21.3,12.1h21.3H1258.7z"/>
		<path class="st10" d="M1344,227c-10,0.1-21.3-12.1-21.3-12.1s-11.3,12.1-21.3,12.1h21.3H1344z"/>
		<path class="st10" d="M1386.8,227c-10,0.1-21.3-12.1-21.3-12.1s-11.3,12.1-21.3,12.1h21.3H1386.8z"/>
		<path class="st10" d="M1450.7,227h21.3c-10.1,0.1-21.3-12.1-21.3-12.1s-11.2,12-21.2,12.1h0.2H1450.7z"/>
		<path class="st10" d="M1429.3,227L1429.3,227c-9.9-0.1-21.1-12.1-21.1-12.1s-11.3,12.1-21.3,12.1h21.3H1429.3z"/>
	</g>
	<rect id="XMLID_32_" x="448" y="249" class="st11" width="1024" height="37"/>
</g>
<g id="XMLID_109_">
	<g id="XMLID_137_">
		<g id="XMLID_138_">
			<path id="XMLID_139_" class="st12" d="M833.1-133.9H644.3c-13.6,0-24.6,11-24.6,24.6v18.7c0,13.6-11,24.6-24.6,24.6h-25.4
				c-13.6,0-24.6,11-24.6,24.6l0,0c0,13.6,11,24.6,24.6,24.6h177.2c13.6,0,24.6-11,24.6-24.6l0,0c0-13.6,11-24.6,24.6-24.6h37
				c13.6,0,24.6-11,24.6-24.6v-18.7C857.7-122.9,846.6-133.9,833.1-133.9z"/>
		</g>
	</g>
</g>
<path id="XMLID_37_" class="st13" d="M138.7-298L138.7-298L138.7-298z"/>
<g id="XMLID_33_">
	<path id="XMLID_34_" class="st12" d="M1339.9-74.1v-14.4c0-5.5-4.4-9.9-9.9-9.9h-151.8c-5.5,0-9.9,4.4-9.9,9.9v32.3
		c0,5.5,4.4,9.9,9.9,9.9h45.9c5.5,0,9.9,4.4,9.9,9.9l0,0c0,5.5,4.4,9.9,9.9,9.9h116.8c5.5,0,9.9-4.4,9.9-9.9v-17.9
		c0-5.5-4.4-9.9-9.9-9.9h-11C1344.3-64.1,1339.9-68.6,1339.9-74.1z"/>
	<path id="XMLID_42_" class="st12" d="M1137.4,2.1h15.2c10.4,0,18.9-8.4,18.9-18.9l0,0c0-10.4-8.4-18.9-18.9-18.9h-15.2
		c-10.4,0-18.9,8.4-18.9,18.9l0,0C1118.6-6.4,1127,2.1,1137.4,2.1z"/>
</g>
</svg>
