<?xml version="1.0" encoding="utf-8"?>
<!-- Generator: Adobe Illustrator 19.0.0, SVG Export Plug-In . SVG Version: 6.00 Build 0)  -->
<svg version="1.2" baseProfile="tiny" id="Layer_1" xmlns="http://www.w3.org/2000/svg" xmlns:xlink="http://www.w3.org/1999/xlink"
	 x="0px" y="0px" viewBox="0 290.5 1024 444.5" xml:space="preserve">
<g>
	<path id="XMLID_31_" fill="#E8DE5E" d="M579.9,692.2c-45.3-40.5-95.2-65.8-215.2-64c-130.4,1.9-198.9,58.3-203.5,62.4L579.9,692.2z
		"/>
	<path fill="#DCD24B" d="M350.3,691.3l229.6,0.9c-35-31.3-72.8-53.5-143.7-61.2C391.5,643.3,359,665.3,350.3,691.3z"/>
</g>
<g id="XMLID_40_">
	<path id="XMLID_39_" fill="#ECA224" d="M382.9,440L382.9,440c-27.2,0-49.2-22-49.2-49.2l0,0c0-27.2,22-49.2,49.2-49.2l0,0
		c27.2,0,49.2,22,49.2,49.2l0,0C432.1,418,410.1,440,382.9,440z"/>
	<path id="XMLID_38_" fill="#E8CB00" d="M382.9,426.2L382.9,426.2c-19.6,0-35.4-15.9-35.4-35.4l0,0c0-19.6,15.9-35.4,35.4-35.4l0,0
		c19.6,0,35.4,15.9,35.4,35.4l0,0C418.4,410.4,402.5,426.2,382.9,426.2z"/>
</g>
<g>
	<path id="XMLID_29_" fill="#E8DD4F" d="M760.7,686.2c-49.1-34.5-138.1-55.4-233.1-54.6c-141.2,1.1-215.4,49.7-220.4,53.2
		L760.7,686.2z"/>
	<path fill="#DCD24B" d="M504.7,685.8l260,0.8c-40.3-28.3-107.5-47.4-182.7-53C545.9,645.8,518.3,664.2,504.7,685.8z"/>
</g>
<g>
	<g id="XMLID_47_">
		<polygon id="XMLID_50_" fill="#674D41" points="267.9,711.3 297.6,648.8 318.1,637.5 348.1,640.7 352.8,715.6 		"/>
		<polygon id="XMLID_49_" fill="#70564C" points="352.8,715.6 267.9,711.3 305.4,675.5 322.7,648.8 348.1,640.7 		"/>
		<polygon id="XMLID_48_" fill="#89695D" points="267.9,711.3 297.6,648.8 322.7,648.8 295.3,711.5 		"/>
	</g>
	<g>
		<g id="XMLID_46_">
			<polygon id="XMLID_43_" fill="#674D41" points="319.1,677.1 351.6,637.2 387.5,642 391.5,679.3 			"/>
			<polygon id="XMLID_45_" fill="#70564C" points="391.5,679.3 319.1,677.1 351.1,659.3 366.4,650.2 388.4,651.1 			"/>
			<polygon id="XMLID_44_" fill="#89695D" points="319.1,677.1 351.6,637.2 366.4,650.2 342.4,677.2 			"/>
		</g>
		<g id="XMLID_51_">
			<polygon id="XMLID_54_" fill="#674D41" points="315.1,691 327.3,654 347.8,647.4 368.4,652.9 382.6,693 			"/>
			<polygon id="XMLID_53_" fill="#70564C" points="382.6,693 297.7,690.5 335.2,669.6 352.8,658.3 368.4,652.9 			"/>
			<polygon id="XMLID_52_" fill="#89695D" points="310.4,692 327.3,654 352.8,658.3 356.2,692 			"/>
		</g>
		<g id="XMLID_74_">
			<polygon id="XMLID_77_" fill="#674D41" points="422.2,725.7 434.4,667.5 454.9,657.1 475.5,665.6 489.7,728.9 			"/>
			<polygon id="XMLID_76_" fill="#70564C" points="495.3,711.4 404.8,724.8 442.3,692 459.9,674.1 475.5,665.6 			"/>
			<polygon id="XMLID_75_" fill="#89695D" points="417.5,727.1 434.4,667.5 459.9,674.1 463.2,727.1 			"/>
		</g>
		<g id="XMLID_62_">
			<polygon id="XMLID_65_" fill="#674D41" points="366,696.9 378.2,659.9 398.7,653.3 419.3,658.8 433.4,698.9 			"/>
			<polygon id="XMLID_64_" fill="#70564C" points="433.4,698.9 348.6,696.4 386.1,675.5 403.7,664.2 419.3,658.8 			"/>
			<polygon id="XMLID_63_" fill="#89695D" points="361.2,697.9 378.2,659.9 403.7,664.2 407,697.9 			"/>
		</g>
		<g id="XMLID_55_">
			<polygon id="XMLID_58_" fill="#674D41" points="264.2,716.7 303.1,661.9 318.2,656.2 330.5,658.7 334,703.5 			"/>
			<polygon id="XMLID_57_" fill="#70564C" points="334,703.5 264.2,716.7 301.7,685.3 318.9,661.9 330.5,658.7 			"/>
			<polygon id="XMLID_56_" fill="#89695D" points="264.2,716.7 303.1,661.9 318.9,661.9 291.6,716.8 			"/>
		</g>
		<g id="XMLID_70_">
			<polygon id="XMLID_73_" fill="#674D41" points="384.9,717.7 417.4,648.5 453.3,656.8 457.3,721.3 			"/>
			<polygon id="XMLID_72_" fill="#70564C" points="457.3,721.3 384.9,717.7 416.9,686.6 432.2,671 454.2,672.6 			"/>
			<polygon id="XMLID_71_" fill="#89695D" points="384.9,717.7 417.4,648.5 432.2,671 408.2,717.8 			"/>
		</g>
		<g id="XMLID_66_">
			<polygon id="XMLID_69_" fill="#674D41" points="317.9,717.7 347.5,681.2 368,674.6 398,676.6 402.8,720.2 			"/>
			<polygon id="XMLID_68_" fill="#70564C" points="402.8,720.2 317.9,717.7 355.4,696.8 372.6,681.2 398,676.6 			"/>
			<polygon id="XMLID_67_" fill="#89695D" points="317.9,717.7 347.5,681.2 372.6,681.2 345.2,717.8 			"/>
		</g>
	</g>
</g>
<g>
	<g>
		<rect x="644.5" y="631.6" fill="#936914" width="15" height="60.5"/>
		<rect x="653.2" y="631.6" fill="#815D10" width="6.4" height="60.5"/>
	</g>
	<g>
		<rect x="668.8" y="634.1" fill="#936914" width="15" height="60.5"/>
		<rect x="677.4" y="634.1" fill="#815D10" width="6.4" height="60.5"/>
	</g>
	<g>
		<rect x="692" y="637.1" fill="#936914" width="15" height="60.5"/>
		<rect x="700.6" y="637.1" fill="#815D10" width="6.4" height="60.5"/>
	</g>
	<g>
		<rect x="714.2" y="639.3" fill="#936914" width="15" height="60.5"/>
		<rect x="722.8" y="639.3" fill="#815D10" width="6.4" height="60.5"/>
	</g>
	<g>
		<rect x="737.2" y="640.9" fill="#936914" width="15" height="60.5"/>
		<rect x="745.8" y="640.9" fill="#815D10" width="6.4" height="60.5"/>
	</g>
	<g>
		<rect x="760.7" y="644.4" fill="#936914" width="15" height="60.5"/>
		<rect x="769.3" y="644.4" fill="#815D10" width="6.4" height="60.5"/>
	</g>
	<g>
		<rect x="784.6" y="646.6" fill="#936914" width="15" height="60.5"/>
		<rect x="793.2" y="646.6" fill="#815D10" width="6.4" height="60.5"/>
	</g>
	<g>
		<rect x="808.9" y="648.4" fill="#936914" width="15" height="60.5"/>
		<rect x="817.5" y="648.4" fill="#815D10" width="6.4" height="60.5"/>
	</g>
	<g>
		<rect x="832" y="650" fill="#936914" width="15" height="60.5"/>
		<rect x="840.6" y="650" fill="#815D10" width="6.4" height="60.5"/>
	</g>
	<g>
		<rect x="857.1" y="654" fill="#936914" width="15" height="60.5"/>
		<rect x="865.7" y="654" fill="#815D10" width="6.4" height="60.5"/>
	</g>
</g>
<g id="XMLID_30_">
	<polygon id="XMLID_61_" fill="#674D41" points="398.2,710.9 437.1,674.5 452.2,670.7 464.5,672.4 468,702.2 	"/>
	<polygon id="XMLID_60_" fill="#70564C" points="468,702.2 398.2,710.9 435.7,690 452.9,674.5 464.5,672.4 	"/>
	<polygon id="XMLID_59_" fill="#89695D" points="398.2,710.9 437.1,674.5 452.9,674.5 425.6,711.1 	"/>
</g>
<g id="XMLID_107_">
	<g>
		<rect x="32" y="674.7" fill="#39BFEF" width="960" height="59"/>
		<path fill="#39BFEF" d="M72,675.6c-9.4,0.1-20-12.1-20-12.1s-10.6,12.1-20,12.1h20H72z"/>
		<path fill="#39BFEF" d="M112.1,675.6c-9.4,0.1-20-12.1-20-12.1s-10.6,12.1-20,12.1h20H112.1z"/>
		<path fill="#39BFEF" d="M172,675.6h20c-9.5,0.1-20-12.1-20-12.1s-10.5,12-19.9,12.1h0.2H172z"/>
		<path fill="#39BFEF" d="M152,675.6h0.1c-9.4-0.1-19.9-12.1-19.9-12.1s-10.6,12.1-20,12.1h20H152z"/>
		<path fill="#39BFEF" d="M232,675.6c-9.4,0.1-20-12.1-20-12.1s-10.6,12.1-20,12.1h20H232z"/>
		<path fill="#39BFEF" d="M272.1,675.6c-9.4,0.1-20-12.1-20-12.1s-10.6,12.1-20,12.1h20H272.1z"/>
		<path fill="#39BFEF" d="M332,675.6h20c-9.5,0.1-20-12.1-20-12.1s-10.5,12-19.9,12.1h0.2H332z"/>
		<path fill="#39BFEF" d="M312,675.6h0.1c-9.4-0.1-19.9-12.1-19.9-12.1s-10.6,12.1-20,12.1h20H312z"/>
		<path fill="#39BFEF" d="M392,675.6c-9.4,0.1-20-12.1-20-12.1s-10.6,12.1-20,12.1h20H392z"/>
		<path fill="#39BFEF" d="M432.1,675.6c-9.4,0.1-20-12.1-20-12.1s-10.6,12.1-20,12.1h20H432.1z"/>
		<path fill="#39BFEF" d="M492,675.6h20c-9.5,0.1-20-12.1-20-12.1s-10.5,12-19.9,12.1h0.2H492z"/>
		<path fill="#39BFEF" d="M472,675.6h0.1c-9.4-0.1-19.9-12.1-19.9-12.1s-10.6,12.1-20,12.1h20H472z"/>
		<path fill="#39BFEF" d="M552,675.6c-9.4,0.1-20-12.1-20-12.1s-10.6,12.1-20,12.1h20H552z"/>
		<path fill="#39BFEF" d="M592.1,675.6c-9.4,0.1-20-12.1-20-12.1s-10.6,12.1-20,12.1h20H592.1z"/>
		<path fill="#39BFEF" d="M652,675.6h20c-9.5,0.1-20-12.1-20-12.1s-10.5,12-19.9,12.1h0.2H652z"/>
		<path fill="#39BFEF" d="M632,675.6L632,675.6c-9.3-0.1-19.8-12.1-19.8-12.1s-10.6,12.1-20,12.1h20H632z"/>
		<path fill="#39BFEF" d="M712,675.6c-9.4,0.1-20-12.1-20-12.1s-10.6,12.1-20,12.1h20H712z"/>
		<path fill="#39BFEF" d="M752.1,675.6c-9.4,0.1-20-12.1-20-12.1s-10.6,12.1-20,12.1h20H752.1z"/>
		<path fill="#39BFEF" d="M812,675.6h20c-9.5,0.1-20-12.1-20-12.1s-10.5,12-19.9,12.1h0.2H812z"/>
		<path fill="#39BFEF" d="M792,675.6L792,675.6c-9.3-0.1-19.8-12.1-19.8-12.1s-10.6,12.1-20,12.1h20H792z"/>
		<path fill="#39BFEF" d="M872,675.6c-9.4,0.1-20-12.1-20-12.1s-10.6,12.1-20,12.1h20H872z"/>
		<path fill="#39BFEF" d="M912.1,675.6c-9.4,0.1-20-12.1-20-12.1s-10.6,12.1-20,12.1h20H912.1z"/>
		<path fill="#39BFEF" d="M972,675.6h20c-9.5,0.1-20-12.1-20-12.1s-10.5,12-19.9,12.1h0.2H972z"/>
		<path fill="#39BFEF" d="M952,675.6L952,675.6c-9.3-0.1-19.8-12.1-19.8-12.1s-10.6,12.1-20,12.1h20H952z"/>
	</g>
	<rect id="XMLID_32_" x="32" y="697.6" fill="#2AA6DF" width="960" height="37"/>
</g>
<g id="XMLID_109_">
	<g id="XMLID_137_">
		<g id="XMLID_138_">
			<path id="XMLID_139_" fill="#FAFAFA" d="M380.1,314.7H191.3c-13.6,0-24.6,11-24.6,24.6V358c0,13.6-11,24.6-24.6,24.6h-25.4
				c-13.6,0-24.6,11-24.6,24.6l0,0c0,13.6,11,24.6,24.6,24.6h177.2c13.6,0,24.6-11,24.6-24.6l0,0c0-13.6,11-24.6,24.6-24.6h37
				c13.6,0,24.6-11,24.6-24.6v-18.7C404.7,325.7,393.6,314.7,380.1,314.7z"/>
		</g>
	</g>
</g>
<path id="XMLID_37_" fill="#E6E6E6" d="M-309.3-139.5L-309.3-139.5L-309.3-139.5z"/>
<g id="XMLID_33_">
	<path id="XMLID_34_" fill="#FAFAFA" d="M886.9,374.5v-14.4c0-5.5-4.4-9.9-9.9-9.9H725.2c-5.5,0-9.9,4.4-9.9,9.9v32.3
		c0,5.5,4.4,9.9,9.9,9.9h45.9c5.5,0,9.9,4.4,9.9,9.9l0,0c0,5.5,4.4,9.9,9.9,9.9h116.8c5.5,0,9.9-4.4,9.9-9.9v-17.9
		c0-5.5-4.4-9.9-9.9-9.9h-11C891.3,384.5,886.9,380,886.9,374.5z"/>
	<path id="XMLID_42_" fill="#FAFAFA" d="M684.4,450.7h15.2c10.4,0,18.9-8.4,18.9-18.9l0,0c0-10.4-8.4-18.9-18.9-18.9h-15.2
		c-10.4,0-18.9,8.4-18.9,18.9l0,0C665.6,442.2,674,450.7,684.4,450.7z"/>
</g>
</svg>
