<?xml version="1.0" encoding="utf-8"?>
<!-- Generator: Adobe Illustrator 19.0.0, SVG Export Plug-In . SVG Version: 6.00 Build 0)  -->
<svg version="1.1"
	 id="svg3336" xmlns:cc="http://creativecommons.org/ns#" xmlns:inkscape="http://www.inkscape.org/namespaces/inkscape" xmlns:rdf="http://www.w3.org/1999/02/22-rdf-syntax-ns#" xmlns:svg="http://www.w3.org/2000/svg" xmlns:sodipodi="http://sodipodi.sourceforge.net/DTD/sodipodi-0.dtd" xmlns:dc="http://purl.org/dc/elements/1.1/" inkscape:version="0.91 r13725" sodipodi:docname="Logo_vector.svg"
	 xmlns="http://www.w3.org/2000/svg" xmlns:xlink="http://www.w3.org/1999/xlink" x="0px" y="0px"
	 viewBox="-704.8 -225 1153.2 1046" style="enable-background:new -704.8 -225 1153.2 1046;" xml:space="preserve">
<style type="text/css">
	.st0{fill:#F7CADE;}
	.st1{fill:#7E9ED1;}
	.st2{fill:#D70A8B;}
	.st3{fill:#024CA1;}
</style>
<sodipodi:namedview  gridtolerance="10" objecttolerance="10" inkscape:cy="111.86092" borderopacity="1" inkscape:cx="19.522804" bordercolor="#666666" pagecolor="#ffffff" inkscape:zoom="3.1966665" showgrid="false" guidetolerance="10" id="namedview3338" inkscape:window-maximized="1" inkscape:window-y="-8" inkscape:window-x="-8" inkscape:window-height="1018" inkscape:window-width="2560" inkscape:current-layer="svg3336" inkscape:pageshadow="2" inkscape:pageopacity="0">
	</sodipodi:namedview>
<g id="g3346" transform="translate(-0.9384744,-0.93847757)">
	<path id="path3354" inkscape:connector-curvature="0" class="st0" d="M-135.8,778.9C-456.6,628.8-629.2,491-679.9,344.2
		c-7-20.2-8.5-32.6-8.5-71.4c-0.1-52,3.9-68.9,26.5-114C-596.2,28-384-108.6-96.4-205.3c29.9-10.1,56.1-18.3,58.3-18.2
		c4.4,0-7.8,7.3-69.4,41.2C-402-20.2-552.2,164.8-529.2,337.2c11.8,88.3,53.2,161.9,139.4,247.7c83.1,82.7,191.4,157.4,314.3,216.8
		c22.7,11,38.8,19.9,35.7,19.8C-43,821.2-86.1,802.1-135.8,778.9z M54.1,722.6C-134.8,634-242.2,566.5-326.1,483.4
		c-45.5-45-72.5-83.8-88.3-126.8c-9.5-26-10.8-34.2-10.6-70.7c0.2-33.4,1.8-45.4,8.5-62.4C-376,120.8-264.9,29.4-77.5-55.3
		c67.2-30.4,197-77.9,201.2-73.6c0.8,0.8-20,13.2-46.1,27.7C-200.7,52.1-322.9,212.3-284.3,373.2
		c30.5,127.1,170.6,262.3,373.6,360.4c23.1,11.1,39.4,20.2,36.3,20C122.5,753.6,90.3,739.6,54.1,722.6L54.1,722.6z M268.4,641.7
		C45.5,535.7-79.1,437.3-116.1,337.8c-10.8-29-11.5-84.2-1.5-113C-88.7,141.8,16,56,172.9-13.4c61.4-27.2,161.7-64.7,167.6-62.7
		c1.9,0.6-12.2,9.6-31.4,19.9C164.7,21.6,56.2,115.5,15.7,197.6C-3.2,235.9-9.8,264-9.8,305.8c0,70,28.7,127.1,99.6,198.1
		c59.9,60,123.3,104.5,212.4,149.3C367.9,686.1,347,679,268.4,641.7L268.4,641.7z M381.2,531.8c-21.7-10.4-47.1-22.4-56.4-26.7
		c-33-15.1-106.4-61.8-131.6-83.6C91,332.9,79.6,255.1,157.4,176.5c33.1-33.4,71.8-58.9,139.4-91.7C346,61,428.7,29.4,432.4,33.1
		c0.9,0.9-22.5,16.4-52,34.4c-65.9,40.3-73.2,45.6-105.4,74.8C163.5,243.4,161.4,342.1,268.4,444c32.9,31.3,72.7,58.8,134.4,92.9
		c10.9,6,19.7,11.6,19.7,12.5C422.6,551.7,424,552.3,381.2,531.8z"/>
	<path id="path3352" inkscape:connector-curvature="0" class="st1" d="M-135.8,778.9C-456.6,628.8-629.2,491-679.9,344.2
		c-7-20.2-8.5-32.6-8.5-71.4c-0.1-52,3.9-68.9,26.5-114C-596.2,28-384-108.6-96.4-205.3c29.9-10.1,56.1-18.3,58.3-18.2
		c4.4,0-7.8,7.3-69.4,41.2C-402-20.2-552.2,164.8-529.2,337.2c11.8,88.3,53.2,161.9,139.4,247.7c83.1,82.7,191.4,157.4,314.3,216.8
		c22.7,11,38.8,19.9,35.7,19.8C-43,821.2-86.1,802.1-135.8,778.9z M54.1,722.6C-134.8,634-242.2,566.5-326.1,483.4
		c-45.5-45-72.5-83.8-88.3-126.8c-9.5-26-10.8-34.2-10.6-70.7c0.2-33.4,1.8-45.4,8.5-62.4C-376,120.8-264.9,29.4-77.5-55.3
		c67.2-30.4,197-77.9,201.2-73.6c0.8,0.8-20,13.2-46.1,27.7C-200.7,52.1-322.9,212.3-284.3,373.2
		c30.5,127.1,170.6,262.3,373.6,360.4c23.1,11.1,39.4,20.2,36.3,20C122.5,753.6,90.3,739.6,54.1,722.6L54.1,722.6z M381.2,531.8
		c-21.7-10.4-47.1-22.4-56.4-26.7c-33-15.1-106.4-61.8-131.6-83.6C91,332.9,79.6,255.1,157.4,176.5c33.1-33.4,71.8-58.9,139.4-91.7
		C346,61,428.7,29.4,432.4,33.1c0.9,0.9-22.5,16.4-52,34.4c-65.9,40.3-73.2,45.6-105.4,74.8C163.5,243.4,161.4,342.1,268.4,444
		c32.9,31.3,72.7,58.8,134.4,92.9c10.9,6,19.7,11.6,19.7,12.5C422.6,551.7,424,552.3,381.2,531.8z"/>
	<path id="path3350" inkscape:connector-curvature="0" class="st2" d="M-135.8,778.9C-456.6,628.8-629.2,491-679.9,344.2
		c-7-20.2-8.5-32.6-8.5-71.4c-0.1-52,3.9-68.9,26.5-114C-596.2,28-384-108.6-96.4-205.3c29.9-10.1,56.1-18.3,58.3-18.2
		c4.4,0-7.8,7.3-69.4,41.2C-402-20.2-552.2,164.8-529.2,337.2c11.8,88.3,53.2,161.9,139.4,247.7c83.1,82.7,191.4,157.4,314.3,216.8
		c22.7,11,38.8,19.9,35.7,19.8C-43,821.2-86.1,802.1-135.8,778.9z M381.2,531.8c-21.7-10.4-47.1-22.4-56.4-26.7
		c-33-15.1-106.4-61.8-131.6-83.6C91,332.9,79.6,255.1,157.4,176.5c33.1-33.4,71.8-58.9,139.4-91.7C346,61,428.7,29.4,432.4,33.1
		c0.9,0.9-22.5,16.4-52,34.4c-65.9,40.3-73.2,45.6-105.4,74.8C163.5,243.4,161.4,342.1,268.4,444c32.9,31.3,72.7,58.8,134.4,92.9
		c10.9,6,19.7,11.6,19.7,12.5C422.6,551.7,424,552.3,381.2,531.8z"/>
	<path id="path3348" inkscape:connector-curvature="0" class="st3" d="M381.2,531.8c-21.7-10.4-47.1-22.4-56.4-26.7
		c-33-15.1-106.4-61.8-131.6-83.6C91,332.9,79.6,255.1,157.4,176.5c33.1-33.4,71.8-58.9,139.4-91.7C346,61,428.7,29.4,432.4,33.1
		c0.9,0.9-22.5,16.4-52,34.4c-65.9,40.3-73.2,45.6-105.4,74.8C163.5,243.4,161.4,342.1,268.4,444c32.9,31.3,72.7,58.8,134.4,92.9
		c10.9,6,19.7,11.6,19.7,12.5C422.6,551.7,424,552.3,381.2,531.8z"/>
</g>
</svg>
