<?xml version="1.0" encoding="UTF-8" standalone="no"?>
<!-- Created with Inkscape (http://www.inkscape.org/) -->

<svg
   xmlns:dc="http://purl.org/dc/elements/1.1/"
   xmlns:cc="http://creativecommons.org/ns#"
   xmlns:rdf="http://www.w3.org/1999/02/22-rdf-syntax-ns#"
   xmlns:svg="http://www.w3.org/2000/svg"
   xmlns="http://www.w3.org/2000/svg"
   xmlns:sodipodi="http://sodipodi.sourceforge.net/DTD/sodipodi-0.dtd"
   xmlns:inkscape="http://www.inkscape.org/namespaces/inkscape"
   id="svg3336"
   version="1.1"
   inkscape:version="0.91 r13725"
   width="292.80502"
   height="265.58917"
   viewBox="0 0 292.80502 265.58917"
   sodipodi:docname="Logo_vector.svg">
  <metadata
     id="metadata3342">
    <rdf:RDF>
      <cc:Work
         rdf:about="">
        <dc:format>image/svg+xml</dc:format>
        <dc:type
           rdf:resource="http://purl.org/dc/dcmitype/StillImage" />
        <dc:title></dc:title>
      </cc:Work>
    </rdf:RDF>
  </metadata>
  <defs
     id="defs3340" />
  <sodipodi:namedview
     pagecolor="#ffffff"
     bordercolor="#666666"
     borderopacity="1"
     objecttolerance="10"
     gridtolerance="10"
     guidetolerance="10"
     inkscape:pageopacity="0"
     inkscape:pageshadow="2"
     inkscape:window-width="2560"
     inkscape:window-height="1018"
     id="namedview3338"
     showgrid="false"
     inkscape:zoom="3.1966665"
     inkscape:cx="19.522804"
     inkscape:cy="111.86092"
     inkscape:window-x="-8"
     inkscape:window-y="-8"
     inkscape:window-maximized="1"
     inkscape:current-layer="svg3336" />
  <g
     id="g3346"
     transform="translate(-0.9384744,-0.93847757)">
    <path
       style="fill:#f7cade"
       d="M 144.05632,253.03733 C 63.963014,215.57391 20.899165,181.16787 8.2390343,144.52556 6.4972309,139.48424 6.128696,136.38932 6.1157588,126.69448 6.0984247,113.70465 7.0789923,109.48548 12.728586,98.240965 29.128874,65.599089 82.091657,31.504089 153.87516,7.3773013 c 7.465,-2.5090277 14.01089,-4.5578731 14.5464,-4.5529899 1.10207,0.01005 -1.93732,1.8148301 -17.32666,10.2885296 C 77.61247,53.573821 40.123654,99.762978 45.851162,142.78137 c 2.93494,22.04385 13.268908,40.40832 34.784713,61.8158 20.741955,20.63754 47.766465,39.27966 78.436085,54.10699 5.67779,2.74495 9.68978,4.96329 8.91554,4.92964 -0.77425,-0.0337 -11.54328,-4.80206 -23.93118,-10.59647 z m 47.39312,-14.06074 C 144.30326,216.86987 117.49701,200.00762 96.533911,179.27077 85.187161,168.04647 78.435732,158.35654 74.49059,147.63326 c -2.382931,-6.47705 -2.690841,-8.53318 -2.643723,-17.65411 0.04309,-8.34265 0.45012,-11.32907 2.121486,-15.56577 10.111856,-25.632271 37.865107,-48.453323 84.634367,-69.593468 16.77084,-7.580578 49.15901,-19.435671 50.21456,-18.380118 0.199,0.199005 -4.98107,3.305655 -11.51126,6.903667 -69.47275,38.27814 -99.964455,78.256979 -90.33153,118.437149 7.6076,31.7323 42.58623,65.47934 93.24596,89.96278 5.75728,2.78245 9.83431,5.03088 9.06006,4.99653 -0.77424,-0.0344 -8.79823,-3.52785 -17.83107,-7.76333 z m 53.49322,-20.18997 c -55.63555,-26.4492 -86.73855,-51.02944 -95.98301,-75.854 -2.69173,-7.2282 -2.87389,-21.01587 -0.3725,-28.1938 7.22004,-20.718471 33.33813,-42.137864 72.51016,-59.465461 15.32302,-6.778074 40.35385,-16.141744 41.8324,-15.648894 0.46941,0.156469 -3.05492,2.390742 -7.83185,4.96505 -36.05973,19.432772 -63.13554,42.854782 -73.24467,63.360545 -4.70465,9.54311 -6.35787,16.56069 -6.35787,26.9878 0,17.47534 7.16309,31.71957 24.86965,49.45478 14.95665,14.98083 30.76902,26.09427 53.02399,37.26693 16.37251,8.21948 11.1495,6.44292 -8.4463,-2.87295 z m 28.15433,-27.43514 c -5.41971,-2.6008 -11.75443,-5.60014 -14.07716,-6.66519 -8.22926,-3.77339 -26.55515,-15.41682 -32.84672,-20.86931 -25.5188,-22.11545 -28.35426,-41.51734 -8.936,-61.1453 8.25502,-8.344167 17.92931,-14.707259 34.79931,-22.888618 12.26404,-5.947629 32.90082,-13.823942 33.81775,-12.907012 0.22074,0.220741 -5.62111,4.088515 -12.98188,8.595052 -16.44472,10.068063 -18.28207,11.370982 -26.31187,18.658439 -27.80792,25.237129 -28.33742,49.888459 -1.61776,75.316679 8.21668,7.81955 18.13715,14.67332 33.55058,23.17916 2.70985,1.49541 4.927,2.89838 4.927,3.1177 0,0.58142 0.35065,0.73058 -10.32325,-4.3916 z"
       id="path3354"
       inkscape:connector-curvature="0" />
    <path
       style="fill:#7e9ed1"
       d="M 144.05632,253.03733 C 63.963014,215.57391 20.899165,181.16787 8.2390343,144.52556 6.4972309,139.48424 6.128696,136.38932 6.1157588,126.69448 6.0984247,113.70465 7.0789923,109.48548 12.728586,98.240965 29.128874,65.599089 82.091657,31.504089 153.87516,7.3773013 c 7.465,-2.5090277 14.01089,-4.5578731 14.5464,-4.5529899 1.10207,0.01005 -1.93732,1.8148301 -17.32666,10.2885296 C 77.61247,53.573821 40.123654,99.762978 45.851162,142.78137 c 2.93494,22.04385 13.268908,40.40832 34.784713,61.8158 20.741955,20.63754 47.766465,39.27966 78.436085,54.10699 5.67779,2.74495 9.68978,4.96329 8.91554,4.92964 -0.77425,-0.0337 -11.54328,-4.80206 -23.93118,-10.59647 z m 47.39312,-14.06074 C 144.30326,216.86987 117.49701,200.00762 96.533911,179.27077 85.187161,168.04647 78.435732,158.35654 74.49059,147.63326 c -2.382931,-6.47705 -2.690841,-8.53318 -2.643723,-17.65411 0.04309,-8.34265 0.45012,-11.32907 2.121486,-15.56577 10.111856,-25.632271 37.865107,-48.453323 84.634367,-69.593468 16.77084,-7.580578 49.15901,-19.435671 50.21456,-18.380118 0.199,0.199005 -4.98107,3.305655 -11.51126,6.903667 -69.47275,38.27814 -99.964455,78.256979 -90.33153,118.437149 7.6076,31.7323 42.58623,65.47934 93.24596,89.96278 5.75728,2.78245 9.83431,5.03088 9.06006,4.99653 -0.77424,-0.0344 -8.79823,-3.52785 -17.83107,-7.76333 z m 81.64755,-47.62511 c -5.41971,-2.6008 -11.75443,-5.60014 -14.07716,-6.66519 -8.22926,-3.77339 -26.55515,-15.41682 -32.84672,-20.86931 -25.5188,-22.11545 -28.35426,-41.51734 -8.936,-61.1453 8.25502,-8.344167 17.92931,-14.707259 34.79931,-22.888618 12.26404,-5.947629 32.90082,-13.823942 33.81775,-12.907012 0.22074,0.220741 -5.62111,4.088515 -12.98188,8.595052 -16.44472,10.068063 -18.28207,11.370982 -26.31187,18.658439 -27.80792,25.237129 -28.33742,49.888459 -1.61776,75.316679 8.21668,7.81955 18.13715,14.67332 33.55058,23.17916 2.70985,1.49541 4.927,2.89838 4.927,3.1177 0,0.58142 0.35065,0.73058 -10.32325,-4.3916 z"
       id="path3352"
       inkscape:connector-curvature="0" />
    <path
       style="fill:#d70a8b"
       d="M 144.05632,253.03733 C 63.963014,215.57391 20.899165,181.16787 8.2390343,144.52556 6.4972309,139.48424 6.128696,136.38932 6.1157588,126.69448 6.0984247,113.70465 7.0789923,109.48548 12.728586,98.240965 29.128874,65.599089 82.091657,31.504089 153.87516,7.3773013 c 7.465,-2.5090277 14.01089,-4.5578731 14.5464,-4.5529899 1.10207,0.01005 -1.93732,1.8148301 -17.32666,10.2885296 C 77.61247,53.573821 40.123654,99.762978 45.851162,142.78137 c 2.93494,22.04385 13.268908,40.40832 34.784713,61.8158 20.741955,20.63754 47.766465,39.27966 78.436085,54.10699 5.67779,2.74495 9.68978,4.96329 8.91554,4.92964 -0.77425,-0.0337 -11.54328,-4.80206 -23.93118,-10.59647 z m 129.04067,-61.68585 c -5.41971,-2.6008 -11.75443,-5.60014 -14.07716,-6.66519 -8.22926,-3.77339 -26.55515,-15.41682 -32.84672,-20.86931 -25.5188,-22.11545 -28.35426,-41.51734 -8.936,-61.1453 8.25502,-8.344167 17.92931,-14.707259 34.79931,-22.888618 12.26404,-5.947629 32.90082,-13.823942 33.81775,-12.907012 0.22074,0.220741 -5.62111,4.088515 -12.98188,8.595052 -16.44472,10.068063 -18.28207,11.370982 -26.31187,18.658439 -27.80792,25.237129 -28.33742,49.888459 -1.61776,75.316679 8.21668,7.81955 18.13715,14.67332 33.55058,23.17916 2.70985,1.49541 4.927,2.89838 4.927,3.1177 0,0.58142 0.35065,0.73058 -10.32325,-4.3916 z"
       id="path3350"
       inkscape:connector-curvature="0" />
    <path
       style="fill:#024ca1"
       d="m 273.09699,191.35148 c -5.41971,-2.6008 -11.75443,-5.60014 -14.07716,-6.66519 -8.22926,-3.77339 -26.55515,-15.41682 -32.84672,-20.86931 -25.5188,-22.11545 -28.35426,-41.51734 -8.936,-61.1453 8.25502,-8.344167 17.92931,-14.707259 34.79931,-22.888618 12.26404,-5.947629 32.90082,-13.823942 33.81775,-12.907012 0.22074,0.220741 -5.62111,4.088515 -12.98188,8.595052 -16.44472,10.068063 -18.28207,11.370982 -26.31187,18.658439 -27.80792,25.237129 -28.33742,49.888459 -1.61776,75.316679 8.21668,7.81955 18.13715,14.67332 33.55058,23.17916 2.70985,1.49541 4.927,2.89838 4.927,3.1177 0,0.58142 0.35065,0.73058 -10.32325,-4.3916 z"
       id="path3348"
       inkscape:connector-curvature="0" />
  </g>
</svg>
